<svg xmlns="http://www.w3.org/2000/svg" width="25" height="25" viewBox="0 0 225 225" version="1.1"><path d="M 49.353 63.059 C 22.484 90.042, 0.387 112.242, 0.249 112.394 C 0.110 112.545, 22.277 135.121, 49.507 162.563 L 99.017 212.456 112.512 198.988 C 119.934 191.581, 125.893 185.188, 125.753 184.781 C 125.614 184.374, 114.048 172.560, 100.051 158.527 L 74.602 133.013 149.551 132.756 L 224.500 132.500 225 122 C 225.275 116.225, 225.275 107.225, 225 102 L 224.500 92.500 150.093 92 L 75.686 91.500 100.593 66.148 C 114.292 52.204, 125.614 40.499, 125.754 40.137 C 125.893 39.775, 120.043 33.633, 112.754 26.489 L 99.500 13.500 112.489 26.754 L 125.478 40.007 99.739 65.761 C 85.583 79.925, 74 91.848, 74 92.257 C 74 92.666, 107.750 93, 149 93 L 224 93 224 112.500 L 224 132 149 132 C 107.750 132, 74 132.334, 74 132.743 C 74 133.152, 85.583 145.075, 99.739 159.239 L 125.478 184.993 112.498 198.002 L 99.518 211.011 50.259 161.759 L 1 112.508 50.246 63.254 C 77.332 36.164, 99.203 14, 98.849 14 C 98.496 14, 76.223 36.077, 49.353 63.059" stroke="none" fill="#a3a3a3" fill-rule="evenodd"/><path d="M 50.246 63.254 L 1 112.508 50.259 161.759 L 99.518 211.011 112.498 198.002 L 125.478 184.993 99.739 159.239 C 85.583 145.075, 74 133.152, 74 132.743 C 74 132.334, 107.750 132, 149 132 L 224 132 224 112.500 L 224 93 149 93 C 107.750 93, 74 92.666, 74 92.257 C 74 91.848, 85.585 79.923, 99.744 65.756 L 125.488 39.998 112.490 26.999 L 99.491 14.001 50.246 63.254" stroke="none" fill="#fbfbfb" fill-rule="evenodd"/></svg>