<svg xmlns="http://www.w3.org/2000/svg" width="30" height="30" viewBox="0 0 651 651" version="1.1"><path d="M 308 123.633 C 306.625 123.832, 301.450 124.494, 296.500 125.105 C 276.993 127.513, 250.978 135.748, 232.182 145.465 C 181.521 171.655, 143.352 219.310, 129.622 273.514 C 123.828 296.383, 121.661 323.372, 123.920 344.500 C 135.015 448.232, 220.665 525.843, 324.199 525.980 C 435.936 526.129, 526 436.208, 526 324.500 C 526 213.021, 434.548 121.992, 323.699 123.136 C 316.439 123.211, 309.375 123.435, 308 123.633 M 300.684 144.476 C 253.679 151.205, 211.803 174.882, 182.980 211.025 C 146.998 256.146, 134.488 315.010, 149.018 370.837 C 160.303 414.197, 187.947 452.261, 226.089 476.959 C 304.674 527.846, 409.890 510.314, 467.323 436.763 C 487.462 410.972, 499.822 381.854, 504.578 349 C 506.846 333.328, 506.124 306.061, 503.029 290.500 C 495.412 252.208, 478.086 220.612, 449.839 193.500 C 423.794 168.502, 391.553 152.175, 354.854 145.401 C 343.036 143.220, 313.036 142.707, 300.684 144.476 M 266.213 261.507 C 262.320 263.198, 259.632 268.596, 260.611 272.758 C 261.030 274.542, 269.855 284.154, 285.861 300.260 L 310.466 325.019 285.638 349.862 C 262.592 372.921, 260.803 374.966, 260.707 378.348 C 260.520 384.957, 266.578 390.060, 272.793 388.528 C 274.505 388.107, 284.510 378.886, 300.017 363.440 L 324.534 339.018 348.017 362.575 C 360.933 375.532, 372.792 386.818, 374.371 387.655 C 382.520 391.974, 391.980 382.532, 387.664 374.388 C 386.822 372.800, 375.532 360.933, 362.575 348.017 L 339.018 324.534 363.440 300.017 C 379.244 284.151, 388.102 274.523, 388.544 272.731 C 390.018 266.751, 385.335 260.805, 379.021 260.639 C 375.037 260.535, 374.639 260.876, 349.991 285.509 L 325 310.485 300.750 286.290 C 279.741 265.328, 273.370 259.857, 270.185 260.039 C 269.808 260.061, 268.021 260.721, 266.213 261.507" stroke="none" fill="#ff0404" fill-rule="evenodd"/><path d="" stroke="none" fill="#fc0404" fill-rule="evenodd"/></svg>