<svg xmlns="http://www.w3.org/2000/svg" width="22" height="22" viewBox="0 0 225 225" version="1.1"><path d="M 100.286 43.040 C 70.986 46.691, 41.268 61.757, 18.507 84.500 C 4.579 98.416, -0.869 108.693, 1.484 116.609 C 5.794 131.105, 30.353 154.415, 54.901 167.310 C 74.610 177.662, 92.333 182.263, 112.500 182.263 C 132.667 182.263, 150.390 177.662, 170.099 167.310 C 193.833 154.843, 218.842 131.467, 223.115 117.755 C 223.673 115.965, 224.583 113.665, 225.139 112.645 C 225.745 111.531, 225.763 111.028, 225.183 111.387 C 224.653 111.714, 223.945 110.520, 223.610 108.733 C 222.666 103.705, 215.334 93.312, 206.511 84.496 C 176.991 55.002, 135.194 38.690, 100.286 43.040 M 103.500 51.099 C 83.452 52.793, 65.038 59.704, 45.176 72.990 C 27.602 84.745, 9 105.062, 9 112.500 C 9 122.623, 37.391 149.587, 60.142 161.072 C 94.919 178.627, 130.081 178.627, 164.858 161.072 C 187.609 149.587, 216 122.623, 216 112.500 C 216 107.989, 208.241 97.339, 197.653 87.316 C 170.468 61.584, 136.060 48.349, 103.500 51.099 M 106.050 69.153 C 92.381 70.783, 79.421 80.304, 72.935 93.479 C 69.598 100.259, 69.500 100.802, 69.500 112.500 C 69.500 124.198, 69.598 124.741, 72.935 131.521 C 89.164 164.490, 135.836 164.490, 152.065 131.521 C 155.402 124.741, 155.500 124.198, 155.500 112.500 C 155.500 100.960, 155.366 100.188, 152.292 93.979 C 148.011 85.330, 143.832 80.494, 136.602 75.821 C 127.300 69.809, 117.849 67.746, 106.050 69.153 M 106.045 77.064 C 94.323 79.437, 83.082 88.859, 78.974 99.753 C 76.017 107.597, 76.052 117.494, 79.066 125.500 C 82.183 133.779, 91.182 142.791, 99.500 145.963 C 113.147 151.169, 127.068 148.107, 137.588 137.588 C 145.189 129.986, 148.193 122.880, 148.193 112.500 C 148.193 102.120, 145.189 95.014, 137.588 87.412 C 128.836 78.661, 117.128 74.819, 106.045 77.064" stroke="none" fill="#b5b5b5" fill-rule="evenodd"/><path d="M 0.067 56.250 C 0.123 103.621, 0.337 111.851, 1.420 108.391 C 6.027 93.670, 30.410 70.555, 54.901 57.690 C 74.610 47.338, 92.333 42.737, 112.500 42.737 C 132.667 42.737, 150.390 47.338, 170.099 57.690 C 194.647 70.585, 219.206 93.895, 223.516 108.391 C 225.868 116.303, 220.429 126.569, 206.500 140.504 C 186.330 160.684, 160.633 174.784, 133.500 180.560 C 122.767 182.845, 102.233 182.845, 91.500 180.560 C 64.367 174.784, 38.670 160.684, 18.500 140.504 C 9.653 131.653, 3.382 122.880, 1.420 116.609 C 0.337 113.149, 0.123 121.379, 0.067 168.754 L -0 225.009 112.750 224.754 L 225.500 224.500 225.750 112.250 L 226 0 113 0 L 0 0 0.067 56.250 M 0.467 56.500 C 0.467 87.300, 0.594 100.044, 0.749 84.821 C 0.904 69.598, 0.905 44.398, 0.749 28.821 C 0.594 13.244, 0.467 25.700, 0.467 56.500 M 103.500 51.099 C 83.452 52.793, 65.038 59.704, 45.176 72.990 C 27.602 84.745, 9 105.062, 9 112.500 C 9 122.623, 37.391 149.587, 60.142 161.072 C 94.919 178.627, 130.081 178.627, 164.858 161.072 C 187.609 149.587, 216 122.623, 216 112.500 C 216 107.989, 208.241 97.339, 197.653 87.316 C 170.468 61.584, 136.060 48.349, 103.500 51.099 M 106.050 69.153 C 92.381 70.783, 79.421 80.304, 72.935 93.479 C 69.598 100.259, 69.500 100.802, 69.500 112.500 C 69.500 124.198, 69.598 124.741, 72.935 131.521 C 89.164 164.490, 135.836 164.490, 152.065 131.521 C 155.402 124.741, 155.500 124.198, 155.500 112.500 C 155.500 100.960, 155.366 100.188, 152.292 93.979 C 148.011 85.330, 143.832 80.494, 136.602 75.821 C 127.300 69.809, 117.849 67.746, 106.050 69.153 M 106.045 77.064 C 94.323 79.437, 83.082 88.859, 78.974 99.753 C 76.017 107.597, 76.052 117.494, 79.066 125.500 C 82.183 133.779, 91.182 142.791, 99.500 145.963 C 113.147 151.169, 127.068 148.107, 137.588 137.588 C 145.189 129.986, 148.193 122.880, 148.193 112.500 C 148.193 102.120, 145.189 95.014, 137.588 87.412 C 128.836 78.661, 117.128 74.819, 106.045 77.064 M 0.468 169 C 0.468 200.075, 0.594 212.788, 0.749 197.250 C 0.904 181.713, 0.904 156.288, 0.749 140.750 C 0.594 125.213, 0.468 137.925, 0.468 169" stroke="none" fill="#fbfbfb" fill-rule="evenodd"/></svg>