<svg xmlns="http://www.w3.org/2000/svg" width="22" height="22" viewBox="0 0 225 225" version="1.1"><path d="M 18 12.752 C 13.721 14.889, 10.544 20.741, 11.488 24.746 C 11.915 26.557, 23.375 38.943, 44.944 60.906 L 77.750 94.311 75.650 98.906 C 74.009 102.496, 73.552 105.467, 73.560 112.500 C 73.569 120.482, 73.924 122.256, 76.699 128.180 C 78.421 131.853, 81.721 136.911, 84.033 139.419 C 89.420 145.264, 99.862 150.556, 107.835 151.481 C 114.143 152.213, 123.557 150.801, 128 148.456 C 130.444 147.166, 131.238 147.870, 163.500 179.932 C 199.008 215.220, 199.411 215.526, 206.431 212.593 C 210.962 210.700, 213 207.426, 213 202.040 L 213 197.526 121.250 105.662 C 39.424 23.735, 26.103 10.994, 22.282 11.002 C 21.852 11.002, 19.925 11.790, 18 12.752 M 94.054 35.462 C 89.958 36.240, 83.506 37.873, 79.715 39.092 L 72.822 41.308 81.661 50.127 L 90.500 58.946 99 57.396 C 114.241 54.616, 132.587 57.283, 147.799 64.490 C 164.014 72.172, 181.665 87.285, 193.799 103.875 L 199.924 112.250 196.801 116.875 C 192.701 122.946, 185.879 131.233, 179.618 137.746 L 174.576 142.992 179.038 147.578 C 181.492 150.101, 185.222 153.543, 187.327 155.227 L 191.154 158.290 197.659 151.895 C 209.632 140.125, 226 116.730, 226 111.387 C 226 110.009, 225.645 109.101, 225.212 109.369 C 224.779 109.637, 223.840 108.535, 223.125 106.920 C 222.410 105.305, 219.277 100.426, 216.163 96.078 C 193.417 64.323, 167.389 44.848, 137 36.847 C 127.006 34.215, 104.456 33.488, 94.054 35.462 M 26.323 73.732 C 22.476 78.004, 16.800 84.783, 13.709 88.795 C -1.022 107.919, -2.069 112.728, 5.825 125 C 20.236 147.404, 43.297 169.021, 63.916 179.454 C 88.423 191.854, 119.401 194.353, 144.610 185.963 L 151.243 183.756 142.371 174.913 L 133.500 166.070 129 167.196 C 121.274 169.129, 101.636 168.540, 92.500 166.103 C 68.412 159.676, 44.283 141.273, 27.649 116.643 C 25.477 113.428, 25.233 112.430, 26.180 110.643 C 28.075 107.069, 38.498 93.870, 44.403 87.565 C 47.461 84.300, 49.858 81.587, 49.731 81.536 C 49.604 81.484, 45.859 77.959, 41.409 73.703 L 33.318 65.963 26.323 73.732 M 95.585 114.500 C 95.974 116.150, 96.634 118.400, 97.050 119.500 C 98.786 124.082, 106.265 129.417, 110.104 128.811 C 111.684 128.561, 110.376 126.824, 103.475 120 C 95.892 112.503, 94.961 111.854, 95.585 114.500" stroke="none" fill="#231c23" fill-rule="evenodd"/><path d="M 0 55.202 L 0 110.403 2.695 105.172 C 6.050 98.662, 18.866 81.716, 27.215 72.751 L 33.500 66.003 41.634 73.921 L 49.768 81.839 44.306 87.669 C 38.483 93.885, 28.064 107.091, 26.180 110.643 C 25.233 112.430, 25.477 113.428, 27.649 116.643 C 44.283 141.273, 68.412 159.676, 92.500 166.103 C 101.636 168.540, 121.274 169.129, 129 167.196 L 133.500 166.070 142.371 174.913 L 151.243 183.756 144.610 185.963 C 119.401 194.353, 88.423 191.854, 63.916 179.454 C 42.809 168.774, 18.932 146.141, 4.930 123.542 L 0 115.584 0 170.292 L 0 225 112.531 225 C 201.635 225, 225.162 224.740, 225.541 223.750 C 225.804 223.063, 225.903 198.200, 225.760 168.500 L 225.500 114.500 222.312 120.125 C 217.567 128.497, 205.045 144.634, 197.659 151.895 L 191.154 158.290 187.327 155.227 C 185.222 153.543, 181.492 150.101, 179.038 147.578 L 174.576 142.992 179.618 137.746 C 185.879 131.233, 192.701 122.946, 196.801 116.875 L 199.924 112.250 193.799 103.875 C 181.665 87.285, 164.014 72.172, 147.799 64.490 C 132.587 57.283, 114.241 54.616, 99 57.396 L 90.500 58.946 81.673 50.139 L 72.846 41.332 79.468 39.158 C 101.566 31.904, 128.685 32.572, 149.732 40.889 C 174.922 50.843, 196.752 68.980, 216.163 96.078 C 219.277 100.426, 222.410 105.305, 223.125 106.920 C 223.840 108.535, 224.779 109.637, 225.212 109.369 C 225.645 109.101, 226 84.384, 226 54.441 L 226 0 113 0 L 0 0 0 55.202 M 0.467 55.500 C 0.467 85.750, 0.594 98.269, 0.749 83.321 C 0.905 68.372, 0.905 43.622, 0.749 28.321 C 0.594 13.019, 0.467 25.250, 0.467 55.500 M 18 12.752 C 13.721 14.889, 10.544 20.741, 11.488 24.746 C 11.915 26.557, 23.375 38.943, 44.944 60.906 L 77.750 94.311 75.650 98.906 C 74.009 102.496, 73.552 105.467, 73.560 112.500 C 73.569 120.482, 73.924 122.256, 76.699 128.180 C 78.421 131.853, 81.721 136.911, 84.033 139.419 C 89.420 145.264, 99.862 150.556, 107.835 151.481 C 114.143 152.213, 123.557 150.801, 128 148.456 C 130.444 147.166, 131.238 147.870, 163.500 179.932 C 199.008 215.220, 199.411 215.526, 206.431 212.593 C 210.962 210.700, 213 207.426, 213 202.040 L 213 197.526 121.250 105.662 C 39.424 23.735, 26.103 10.994, 22.282 11.002 C 21.852 11.002, 19.925 11.790, 18 12.752 M 95.585 114.500 C 95.974 116.150, 96.634 118.400, 97.050 119.500 C 98.786 124.082, 106.265 129.417, 110.104 128.811 C 111.684 128.561, 110.376 126.824, 103.475 120 C 95.892 112.503, 94.961 111.854, 95.585 114.500 M 0.467 170.500 C 0.467 200.750, 0.594 213.269, 0.749 198.321 C 0.905 183.372, 0.905 158.622, 0.749 143.321 C 0.594 128.019, 0.467 140.250, 0.467 170.500" stroke="none" fill="#f9f9f9" fill-rule="evenodd"/></svg>