<svg xmlns="http://www.w3.org/2000/svg" width="22" height="22" viewBox="0 0 225 225" version="1.1"><path d="M -0 112.504 L -0 225.009 112.750 224.754 L 225.500 224.500 225.754 112.250 L 226.009 0 113.004 0 L 0 0 -0 112.504 M 0.479 113 C 0.476 188.252, 0.644 207.040, 0.987 169.746 L 1.500 113.991 49.996 162.496 C 76.669 189.173, 98.951 211, 99.511 211 C 100.071 211, 106.223 205.263, 113.182 198.250 L 125.836 185.500 100.365 159.500 L 74.894 133.500 149.697 133 L 224.500 132.500 225.015 178.500 C 225.303 204.227, 225.528 174.920, 225.525 112 C 225.522 50.125, 225.399 20.537, 225.250 46.250 L 224.980 93 149.323 93 C 107.712 93, 74.005 92.663, 74.419 92.250 C 93.467 73.271, 125 40.870, 125 40.277 C 125 39.834, 119.148 33.632, 111.995 26.495 L 98.989 13.518 50.003 62.497 L 1.017 111.475 0.750 55.988 C 0.603 25.469, 0.481 51.125, 0.479 113 M 0.483 113 C 0.483 174.875, 0.603 200.188, 0.750 169.250 C 0.897 138.313, 0.897 87.688, 0.750 56.750 C 0.603 25.813, 0.483 51.125, 0.483 113" stroke="none" fill="#040404" fill-rule="evenodd"/><path d="M 49.746 62.754 C 22.936 89.568, 1 111.958, 1 112.508 C 1 113.822, 98.204 211, 99.518 211 C 100.074 211, 106.223 205.263, 113.182 198.250 L 125.836 185.500 100.365 159.500 L 74.894 133.500 149.697 133 L 224.500 132.500 224.771 112.756 L 225.042 93.013 149.551 92.756 L 74.060 92.500 96.041 70.500 C 108.131 58.400, 119.657 46.546, 121.655 44.157 L 125.286 39.814 112.407 26.907 C 105.324 19.808, 99.296 14, 99.011 14 C 98.726 14, 76.557 35.939, 49.746 62.754" stroke="none" fill="white" fill-rule="evenodd"/></svg>