<svg xmlns="http://www.w3.org/2000/svg" width="22" height="22" viewBox="0 0 513 613" version="1.1"><path d="M 219.827 269.750 C 253.007 269.896, 307.007 269.896, 339.827 269.750 C 372.647 269.604, 345.500 269.484, 279.500 269.484 C 213.500 269.484, 186.647 269.604, 219.827 269.750" stroke="none" fill="#806c74" fill-rule="evenodd"/><path d="M 264.035 19.087 C 196.647 25.575, 138.523 74.782, 121.869 139.444 C 117.489 156.448, 116.881 162.672, 116.316 196.250 C 115.878 222.282, 115.497 229, 114.457 229 C 111.569 229, 88.651 241.387, 80.834 247.172 C 51.113 269.170, 32.947 298.401, 25.317 336.500 C 23.965 343.254, 23.647 355.711, 23.277 416.500 C 22.982 464.944, 23.205 492.681, 23.959 501.278 C 27.759 544.617, 49.787 582.797, 84.545 606.284 L 94.500 613.010 279.412 613.005 L 464.324 613 468.912 610.337 C 481.772 602.875, 498.467 587.822, 508.086 575.016 L 512.981 568.500 512.990 425.654 L 513 282.809 510.820 279.654 C 502.007 266.901, 487.220 252.521, 473.284 243.151 C 467.015 238.936, 449.177 229.803, 445.166 228.754 C 443.003 228.188, 443 228.137, 443 197.193 C 443 170.694, 442.708 164.490, 440.986 154.419 C 428.402 80.811, 368.415 25.622, 293.813 19.019 C 281.144 17.897, 276.283 17.908, 264.035 19.087 M 260.235 69.497 C 236.289 73.838, 216.521 84.200, 199.416 101.377 C 186.108 114.741, 177.422 128.699, 171.608 146.065 C 167.077 159.597, 166 169.114, 166 195.631 L 166 220 280 220 L 394 220 393.997 198.250 C 393.993 165.152, 391.595 151.356, 382.568 132.500 C 366.769 99.501, 335.390 75.787, 299.164 69.469 C 288.953 67.689, 270.138 67.702, 260.235 69.497 M 153 270.089 C 117.083 274.256, 87.629 299.395, 76.304 335.549 L 73.500 344.500 73.500 425.500 L 73.500 506.500 76.259 515.297 C 84.685 542.159, 101.501 561.518, 126.381 572.999 C 143.858 581.063, 132.324 580.500, 280 580.500 C 405.032 580.500, 411.844 580.408, 418.500 578.640 C 427.751 576.181, 440.715 570.097, 448.344 564.633 C 455.425 559.560, 466.148 548.664, 470.853 541.759 C 475.683 534.671, 481.694 521.518, 484.225 512.500 C 486.463 504.523, 486.470 504.272, 486.485 426.500 C 486.501 343.187, 486.571 344.518, 481.416 329.630 C 471.769 301.765, 447.361 279.893, 416.893 271.812 L 408.500 269.586 284.500 269.403 C 216.300 269.302, 157.125 269.611, 153 270.089 M 270 369.018 C 264.416 371.624, 260.464 375.301, 257.658 380.500 C 255.571 384.369, 255.490 385.759, 255.198 423 C 254.980 450.643, 255.232 462.712, 256.091 465.798 C 261.995 487.019, 290.807 490.220, 301.538 470.848 L 304.500 465.500 304.827 430 C 305.007 410.475, 304.868 392.186, 304.519 389.358 C 303.628 382.149, 298.708 374.317, 292.769 370.654 C 286.293 366.660, 276.552 365.960, 270 369.018" stroke="none" fill="#7c6c74" fill-rule="evenodd"/></svg>