<svg xmlns="http://www.w3.org/2000/svg" width="22" height="22" viewBox="0 0 512 512" version="1.1"><path d="" stroke="none" fill="#7B6F72" fill-rule="evenodd"/><path d="M 200.173 81.750 C 230.243 81.897, 279.743 81.897, 310.173 81.750 C 340.603 81.603, 316 81.483, 255.500 81.483 C 195 81.483, 170.103 81.603, 200.173 81.750 M 202.750 465.750 C 232.038 465.897, 279.963 465.897, 309.250 465.750 C 338.538 465.603, 314.575 465.482, 256 465.482 C 197.425 465.482, 173.463 465.603, 202.750 465.750" stroke="none" fill="#806c74" fill-rule="evenodd"/><path d="M 140.278 47.042 C 85.398 51.418, 41.430 91.647, 28.980 148.876 C 25.151 166.476, 24.833 176.307, 25.259 264 C 25.656 345.887, 25.735 348.809, 27.819 358.500 C 38.579 408.529, 68.482 444.809, 110.584 458.914 C 129.192 465.148, 125.662 465, 255.500 465 C 380.858 465, 380.738 465.004, 397 460.323 C 439.758 448.016, 473.758 409.218, 483.454 361.667 C 486.776 345.380, 487.108 334.091, 486.770 248.965 C 486.441 165.798, 486.401 164.335, 484.179 153.735 C 473.573 103.142, 441.846 65.461, 398.611 52.107 C 380.465 46.502, 383.785 46.641, 262.500 46.425 C 200.900 46.316, 145.900 46.593, 140.278 47.042 M 139.500 82.108 C 109.912 85.891, 84.501 104.817, 71.073 133.072 C 66.080 143.578, 62.542 155.803, 61.109 167.500 C 59.636 179.516, 59.588 332.235, 61.053 344.026 C 63.814 366.250, 71.545 384.692, 84.831 400.747 C 90.722 407.865, 102.794 416.980, 112.500 421.638 C 130.159 430.114, 118.711 429.448, 252.500 429.782 C 334.321 429.986, 373.470 429.742, 377.805 429 C 393.663 426.289, 410.708 417.329, 422.566 405.471 C 437.610 390.427, 448.005 368.050, 450.891 344.500 C 452.354 332.565, 452.412 179.805, 450.959 167.974 C 449.452 155.708, 446.370 144.806, 441.395 134.148 C 429.240 108.106, 409.020 91.016, 381.818 83.794 L 373.500 81.585 260 81.399 C 197.575 81.297, 143.350 81.616, 139.500 82.108 M 125.791 171.988 C 118.563 174.167, 113.068 181.528, 113.022 189.093 C 112.973 197.055, 114.581 198.588, 168.427 241.939 C 199.739 267.146, 221.886 284.261, 225.927 286.373 C 244.233 295.938, 265.936 296.335, 284.860 287.450 C 293.592 283.350, 288.839 287.005, 348.361 238.619 C 399.464 197.077, 399 197.536, 399 188.482 C 399 174.700, 383.446 166.750, 372 174.683 C 370.625 175.636, 348.091 193.823, 321.924 215.099 C 295.758 236.374, 272.358 254.838, 269.924 256.129 C 263.828 259.363, 250.664 259.491, 244 256.380 C 241.525 255.225, 216.868 236.007, 189.207 213.675 C 134.814 169.760, 134.302 169.423, 125.791 171.988" stroke="none" fill="#7c6c74" fill-rule="evenodd"/></svg>