<?xml version="1.0" encoding="UTF-8"?>
<svg version="1.1" xmlns="http://www.w3.org/2000/svg" width="28" height="28">
<path d="M0 0 C24.82407493 19.7356572 43.33323578 45.71549359 51.64672852 76.59838867 C51.94087646 77.67008301 51.94087646 77.67008301 52.2409668 78.76342773 C58.29454345 101.87888395 57.94065002 128.59014583 51.64672852 151.59838867 C51.47012695 152.26354492 51.29352539 152.92870117 51.11157227 153.61401367 C41.35956581 189.15465941 16.6138806 220.26820354 -15.27905273 238.45776367 C-48.19208349 256.61246438 -87.78901344 262.60056796 -124.35327148 252.59838867 C-125.01842773 252.42178711 -125.68358398 252.24518555 -126.36889648 252.06323242 C-161.90954222 242.31122597 -193.02308635 217.56554076 -211.21264648 185.67260742 C-229.36734719 152.75957667 -235.35545077 113.16264672 -225.35327148 76.59838867 C-225.17666992 75.93323242 -225.00006836 75.26807617 -224.81811523 74.58276367 C-215.06610878 39.04211794 -190.32042357 7.92857381 -158.42749023 -10.26098633 C-108.57993194 -37.75670705 -45.59355554 -35.18406798 0 0 Z M-175.35327148 20.59838867 C-176.16280273 21.33702148 -176.97233398 22.0756543 -177.80639648 22.83666992 C-200.52105617 44.55855602 -214.58125867 76.08427766 -215.55639648 107.52416992 C-216.08130701 143.59923107 -204.85604031 175.81545082 -180.35327148 202.59838867 C-179.61463867 203.40791992 -178.87600586 204.21745117 -178.11499023 205.05151367 C-167.28276345 216.37881481 -154.39693026 224.76122856 -140.35327148 231.59838867 C-140.02327148 231.59838867 -139.69327148 231.59838867 -139.35327148 231.59838867 C-139.35088313 230.65471089 -139.34849478 229.71103312 -139.34603405 228.73875904 C-139.28726569 205.78762791 -139.2113994 182.83660199 -139.11755657 159.88558674 C-139.07257179 148.78668987 -139.0331633 137.68782529 -139.00683594 126.58886719 C-138.9838776 116.91614885 -138.95050381 107.24353243 -138.90456992 97.5708949 C-138.88060853 92.4482774 -138.86189886 87.32576104 -138.85565758 82.20308876 C-138.84961993 77.38253854 -138.8296679 72.56224717 -138.79899597 67.74179268 C-138.79019455 65.97171067 -138.78649751 64.20159486 -138.78826332 62.43149185 C-138.78991251 60.01569849 -138.7732478 57.60069758 -138.7519989 55.18501282 C-138.75684648 54.48364254 -138.76169405 53.78227226 -138.76668853 53.05964833 C-138.68460977 47.41011289 -137.0085419 44.35760184 -133.20690918 40.31724548 C-129.38920727 38.01769535 -126.02165106 38.04480706 -121.69506836 38.09667969 C-120.83430191 38.0912767 -119.97353546 38.08587372 -119.08668518 38.08030701 C-116.24811163 38.06782393 -113.41055317 38.08430784 -110.57202148 38.10229492 C-108.59574327 38.10213992 -106.61946476 38.10065082 -104.64318848 38.09788513 C-100.5039321 38.09650133 -96.3650223 38.10905625 -92.22583008 38.13183594 C-86.92282387 38.16022037 -81.62039348 38.15748293 -76.31734467 38.14474583 C-72.23723441 38.13778742 -68.15725699 38.14557982 -64.0771637 38.15800285 C-62.12195851 38.16251577 -60.16673906 38.16285555 -58.21153259 38.15893745 C-55.47788308 38.15602367 -52.74502417 38.1725402 -50.01147461 38.19433594 C-48.80189842 38.18758347 -48.80189842 38.18758347 -47.56788635 38.18069458 C-41.51962503 38.26072828 -38.44388702 39.47372334 -34.24765396 43.73830032 C-31.90776806 47.27099791 -31.78871519 50.05098416 -31.83428955 54.14704895 C-31.82303767 55.27439226 -31.82303767 55.27439226 -31.81155849 56.42451018 C-31.79128823 58.93823653 -31.79938233 61.45106031 -31.80737305 63.96484375 C-31.79863765 65.76852307 -31.78815198 67.57219464 -31.77604675 69.37585449 C-31.74816207 74.27009197 -31.74478262 79.16407689 -31.74576664 84.05838227 C-31.74263967 89.17404492 -31.71702595 94.28959345 -31.69378662 99.40519714 C-31.65320659 109.09129616 -31.63288118 118.77732783 -31.61981273 128.46349877 C-31.60394948 139.49127676 -31.56553669 150.51894001 -31.52521944 161.54665148 C-31.44279306 184.23052538 -31.38871804 206.91439616 -31.35327148 229.59838867 C-29.14683358 228.52927817 -26.9445435 227.45274362 -24.74389648 226.37182617 C-24.12853027 226.0746167 -23.51316406 225.77740723 -22.87915039 225.47119141 C4.85574789 211.78644911 25.46057336 183.71952224 35.45922852 154.97338867 C45.9652784 121.43892642 43.36863564 86.07668079 27.64672852 54.59838867 C21.83106194 43.94432184 14.82514253 34.53786633 6.64672852 25.59838867 C5.9080957 24.78885742 5.16946289 23.97932617 4.40844727 23.14526367 C-17.31343883 0.43060399 -48.83916047 -13.62959851 -80.27905273 -14.60473633 C-116.35411388 -15.12964686 -148.57033363 -3.90438015 -175.35327148 20.59838867 Z " fill="#FF0000" transform="translate(229.353271484375,28.401611328125)"/>
</svg>
