<svg xmlns="http://www.w3.org/2000/svg" width="22" height="22" viewBox="0 0 512 512" version="1.1"><path d="" stroke="none" fill="#806c74" fill-rule="evenodd"/><path d="M 141.500 61.962 C 124.857 65.553, 108.067 76.971, 85.706 99.905 C 74.969 110.918, 72.594 113.958, 69.127 121.129 C 66.901 125.733, 64.303 132.650, 63.354 136.500 C 61.008 146.019, 61.014 164.795, 63.367 175.768 C 73.382 222.485, 113.081 280.136, 180.384 345.701 C 249.707 413.233, 302.564 445.895, 350.064 450.550 C 363.725 451.889, 382.360 447.866, 394.810 440.890 C 401.489 437.148, 426.811 412.220, 434.823 401.500 C 446.941 385.286, 452.352 369.376, 450.189 356.319 C 447.659 341.054, 440.276 331.080, 410.293 302.423 C 390.854 283.844, 387.010 280.629, 380.106 277.173 C 364.719 269.472, 353.470 269.421, 331.026 276.951 C 315.095 282.296, 307.779 283.500, 300.333 282.005 C 287.670 279.461, 273.600 270.423, 257.707 254.623 C 241.711 238.721, 233.035 225.481, 230.433 212.999 C 228.588 204.154, 229.484 197.900, 234.905 181.775 C 240.231 165.934, 241.618 156.967, 240.134 147.983 C 237.546 132.311, 232.267 124.740, 203.813 95.894 C 181.990 73.772, 174.759 67.924, 164.460 64.071 C 158.119 61.698, 147.318 60.706, 141.500 61.962 M 143.500 91.803 C 136.669 94.176, 129.332 99.241, 117.500 109.752 C 103.939 121.799, 98.267 128.299, 94.597 136 C 91.578 142.335, 91.502 142.855, 91.560 156.500 C 91.634 173.860, 93.785 181.853, 103.938 202.500 C 118.602 232.319, 142.465 264.063, 179.614 303.170 C 232.449 358.789, 284.084 398.860, 322.411 413.985 C 334.559 418.779, 345.182 420.985, 356.161 420.993 C 373.819 421.006, 381.343 417.094, 397.853 399.318 C 420.835 374.572, 425.319 363.887, 417.559 352.364 C 414.035 347.130, 380.092 313, 372 306.552 C 369.525 304.580, 365.196 302.284, 362.380 301.450 C 356.295 299.648, 353.252 300.168, 336 305.956 C 316.147 312.618, 302.191 313.446, 287.208 308.852 C 270.741 303.804, 256.135 294.072, 237.902 276 C 213.701 252.014, 202.200 231.829, 200.394 210.171 C 199.556 200.123, 201.122 190.994, 206.622 173.870 C 211.716 158.012, 212.166 152.041, 208.792 145.066 C 207.317 142.017, 199.294 133.108, 184.645 118.255 C 166.863 100.224, 161.567 95.440, 156.693 93.005 C 149.708 89.514, 150.008 89.541, 143.500 91.803" stroke="none" fill="#7c6c74" fill-rule="evenodd"/></svg>