<svg xmlns="http://www.w3.org/2000/svg" width="22" height="22" viewBox="0 0 512 512" version="1.1"><path d="M 252.250 73.689 C 253.213 73.941, 254.787 73.941, 255.750 73.689 C 256.712 73.438, 255.925 73.232, 254 73.232 C 252.075 73.232, 251.287 73.438, 252.250 73.689" stroke="none" fill="#806c74" fill-rule="evenodd"/><path d="M 240.847 43.039 C 201.144 47.674, 164.022 75.843, 149.301 112.507 C 142.550 129.322, 141.644 134.450, 141.618 156 C 141.597 173.030, 141.871 176.492, 143.777 183.330 C 153.250 217.319, 174.446 243.446, 204.358 258.007 C 240.386 275.544, 284.796 272.400, 318.123 249.952 C 326.219 244.499, 339.742 231.420, 345.991 223 C 363.707 199.130, 371.275 167.743, 366.465 138.084 C 356.693 77.832, 301.372 35.975, 240.847 43.039 M 244.679 74.038 C 209.105 78.263, 180.098 105.620, 173.302 141.352 C 171.337 151.686, 172.064 168.644, 174.884 178.266 C 183.467 207.543, 206.092 229.041, 235.791 236.138 C 243.040 237.871, 246.679 238.143, 257.500 237.761 C 268.766 237.364, 271.767 236.874, 280 234.092 C 306.459 225.151, 326.872 203.376, 334.146 176.337 C 337.125 165.262, 337.106 146.671, 334.104 135.500 C 323.399 95.663, 284.973 69.253, 244.679 74.038 M 210.500 310.088 C 173.574 312.544, 144.067 319.285, 122.968 330.083 C 102.132 340.747, 90.518 354.620, 86.483 373.665 C 81.269 398.274, 89.922 421.904, 109.634 436.885 C 117.174 442.615, 132.849 450.589, 143 453.859 C 173.130 463.563, 214.374 467.825, 267 466.670 C 317.527 465.562, 348.880 460.948, 374.500 450.849 C 388.659 445.267, 397.359 439.814, 406.034 431.083 C 414.273 422.789, 418.948 414.984, 421.354 405.500 C 428.656 376.716, 418.153 350.779, 392.608 334.509 C 371.994 321.381, 340.186 313.198, 297.500 310.043 C 281.563 308.865, 228.469 308.892, 210.500 310.088 M 214.500 342.604 C 193.913 344.551, 187.065 345.366, 177.528 347.005 C 146.215 352.385, 126.154 362.917, 120.010 377.199 C 116.924 384.371, 117.492 394.751, 121.327 401.295 C 130.804 417.466, 156.798 427.295, 203 432.179 C 219.883 433.963, 288.982 433.958, 306 432.170 C 353.277 427.205, 379.238 417.035, 388.120 400 C 391.401 393.707, 391.381 382.452, 388.078 376 C 381.067 362.306, 360.734 352.139, 330 346.957 C 323.675 345.890, 314.675 344.528, 310 343.929 C 301.939 342.896, 222.990 341.801, 214.500 342.604" stroke="none" fill="#7c6c74" fill-rule="evenodd"/></svg>