<svg xmlns="http://www.w3.org/2000/svg" width="180" height="318" viewBox="0 0 513 658" version="1.1"><path d="M 343.729 1.129 C 337.441 2.066, 326.896 5.512, 320.685 8.660 L 315.698 11.187 319.540 13.343 C 324.890 16.346, 327.673 22.331, 330.093 36.033 C 332.319 48.642, 334.129 52.431, 339.799 56.361 C 344.849 59.860, 347.109 59.691, 351.300 55.500 C 355.334 51.466, 356.275 51.275, 358.947 53.947 C 363.464 58.464, 364.305 73.418, 360.342 78.763 C 359.127 80.402, 356.066 82.308, 352.715 83.514 L 347.116 85.529 354.808 91.289 C 363.693 97.943, 372.901 102.785, 378.353 103.670 C 381.984 104.259, 382.453 103.996, 388.683 97.894 C 393.337 93.335, 395.037 92.146, 394.605 93.750 C 394.272 94.987, 393.723 97.013, 393.384 98.250 C 393.045 99.487, 390.561 106.247, 387.864 113.270 C 383.919 123.542, 379.043 139.966, 379.007 143.103 C 379.003 143.435, 384.289 146.701, 390.754 150.361 C 421.114 167.550, 434.963 187.949, 434.992 215.526 C 435.002 224.818, 433.387 237.631, 430.962 247.500 C 429.435 253.714, 425 278.957, 425 281.436 C 425 282.388, 432.642 283.989, 437.212 283.994 C 450.344 284.010, 465.882 272.408, 481.334 251.050 C 486.407 244.037, 487.051 242.367, 484.066 243.965 C 478.484 246.952, 466.718 242.620, 461.840 235.781 C 459.735 232.830, 459.504 231.446, 459.542 222 C 459.577 213.395, 460.255 208.741, 463.296 196.214 C 469.324 171.393, 472.650 146.906, 473.650 120 C 474.593 94.602, 471.823 75.478, 465.352 62.707 C 458.492 49.169, 437.492 35.844, 407.500 25.996 C 398.169 22.932, 396.998 22.237, 390 15.604 C 376.235 2.558, 362.652 -1.692, 343.729 1.129 M 181 103.406 L 165.500 104.500 158.097 119.047 L 150.693 133.595 160.006 147.547 C 168.821 160.754, 170.922 163.411, 171.832 162.501 C 172.047 162.286, 170.124 158.261, 167.559 153.555 C 164.994 148.850, 163.135 145, 163.428 145 C 163.721 145, 167.623 150.512, 172.099 157.250 C 176.574 163.988, 180.971 170.082, 181.868 170.794 C 183.601 172.168, 189.308 172.289, 206.589 171.316 L 216.678 170.749 223.975 156.051 L 231.272 141.353 222.174 127.760 C 213.191 114.338, 209.913 110.712, 207.573 111.610 C 206.914 111.863, 205.742 110.886, 204.967 109.438 C 203.502 106.701, 198.346 101.884, 197.173 102.156 C 196.803 102.242, 189.525 102.805, 181 103.406 M 180.500 109.898 C 173.405 113.984, 166.414 120.437, 163.269 125.803 C 161.199 129.336, 160.588 131.657, 160.648 135.767 C 160.690 138.714, 161.156 141.556, 161.683 142.083 C 162.294 142.694, 165.104 137.806, 169.433 128.605 L 176.226 114.170 185.613 113.466 C 190.776 113.079, 195 112.444, 195 112.055 C 195 110.436, 190.191 107.001, 187.936 107.009 C 186.596 107.015, 183.250 108.314, 180.500 109.898 M 175 323.042 C 144.241 325.992, 100.515 335.732, 80.356 344.124 C 71.772 347.698, 65.521 352.103, 62.344 356.817 C 60.219 359.970, 58.279 372.019, 59.160 376.593 C 59.687 379.331, 68.966 384.524, 76.786 386.458 C 88.622 389.385, 87.938 388.898, 90.898 396.500 C 94.145 404.838, 97.703 410.638, 103.290 416.698 C 109.658 423.608, 113.938 425.397, 123.652 425.213 C 128.136 425.127, 133.713 424.400, 136.047 423.596 C 139.930 422.258, 141.612 422.342, 155.895 424.592 C 164.478 425.944, 174.650 427.492, 178.500 428.033 C 197.421 430.691, 229.436 437.857, 242.831 442.432 C 275.313 453.526, 326.986 457.146, 352.375 450.106 L 359 448.269 359 461.634 L 359 475 378 475 L 397 475 397 463 L 397 451 406.111 451 L 415.223 451 414.558 447.250 C 413.219 439.694, 413.625 440, 404.933 440 L 397 440 397 429.460 C 397 421.039, 397.386 418.164, 398.921 415.156 C 399.977 413.085, 401.351 408.580, 401.974 405.145 C 403.075 399.074, 403.025 398.766, 400.204 394.199 C 397.591 389.969, 396.962 389.521, 393.901 389.714 C 370.744 391.172, 367.124 391.167, 359.182 389.661 C 349.065 387.743, 341.840 384.543, 333.111 378.114 C 322.833 370.543, 312.091 366, 304.471 366 C 298.838 366, 286.319 350.827, 277.954 333.862 L 274.681 327.223 271.590 329.108 C 267.106 331.843, 256.902 331.587, 244 328.417 C 238.225 326.998, 229.675 325.183, 225 324.383 C 214.337 322.559, 187.528 321.840, 175 323.042 M 475.152 426.467 L 475.500 439.935 466 440.217 L 456.500 440.500 455.972 445.750 L 455.444 451 465.722 451 L 476 451 476 462.845 L 476 474.690 489.658 475.345 C 497.170 475.705, 505.495 476, 508.158 476 L 513 476 513 444.500 L 513 413 493.902 413 L 474.804 413 475.152 426.467 M 54.500 543.576 C 47.413 548.488, 34.545 554.946, 19.911 560.934 C 12.987 563.767, 5.793 567.362, 3.925 568.921 C 0.861 571.479, 0.625 572.038, 1.514 574.629 C 2.201 576.629, 4.017 578.258, 7.500 580 C 12.472 582.486, 12.656 582.500, 40.164 582.500 L 67.828 582.500 56.102 590.095 C 44.465 597.633, 31.923 605.276, 22.695 610.453 C 16.426 613.970, 14.919 617.069, 17.672 620.779 C 22.046 626.673, 35.484 628.338, 74.104 627.770 C 100.009 627.388, 103.088 627.159, 109.204 625.150 C 112.892 623.939, 117.279 621.795, 118.954 620.385 C 122.590 617.326, 122.699 615.787, 120.342 600.910 L 118.663 590.321 109.082 590.717 C 103.812 590.935, 97.486 590.740, 95.024 590.283 C 90.866 589.512, 90.438 589.137, 89.001 585.002 C 87.413 580.435, 85.167 578.638, 79.606 577.488 L 76.712 576.890 77.325 568.945 C 77.820 562.520, 77.670 561, 76.541 561 C 75.712 561, 73.876 557.651, 72.019 552.750 C 68.741 544.100, 65.377 539.963, 61.694 540.055 C 60.487 540.085, 57.250 541.670, 54.500 543.576" stroke="none" fill="#412c4c" fill-rule="evenodd"/><path d="M 311.476 15.155 C 305.097 20.756, 301.928 29.039, 299.473 46.529 C 298.646 52.420, 297.668 57.749, 297.300 58.370 C 296.932 58.992, 294.014 62.464, 290.816 66.086 C 287.546 69.789, 285 73.620, 285 74.838 C 285 76.275, 286.597 78.151, 289.750 80.417 L 294.500 83.830 296.846 94.637 C 299.312 106, 302.801 114.326, 305.535 115.375 C 308.038 116.336, 312.881 116.088, 319.750 114.649 L 326 113.339 325.882 122.919 C 325.817 128.189, 325.476 133.850, 325.124 135.500 L 324.485 138.500 313.992 139.240 C 301.290 140.135, 291.590 142.906, 285.861 147.275 C 280.814 151.125, 273.487 161.113, 264.024 177.044 C 260.252 183.393, 254.047 192.618, 250.234 197.544 C 238.836 212.268, 213.316 240, 211.164 240 C 208.532 240, 199.925 206.173, 197.187 185.067 L 195.444 171.634 189.472 171.870 C 185.734 172.019, 182.890 171.620, 181.868 170.804 C 180.971 170.087, 176.574 163.988, 172.099 157.250 C 167.623 150.512, 163.770 145, 163.537 145 C 163.304 145, 165.676 150.024, 168.807 156.164 L 174.500 167.328 175.158 206.914 C 175.949 254.559, 176.699 262.439, 182.162 280.500 C 186.164 293.729, 186.770 294.355, 195 293.741 C 202.774 293.161, 213.755 289.012, 236.639 278.009 C 254.393 269.472, 259.892 266.050, 267.761 258.642 C 270.655 255.918, 273.162 253.871, 273.334 254.094 C 274.209 255.234, 277.119 264.273, 278.455 270 C 280.209 277.521, 280.375 288.590, 278.987 305.348 C 278.163 315.286, 277.566 317.977, 275.284 322.037 C 273.787 324.700, 271.515 327.356, 270.234 327.939 C 266.029 329.855, 254.928 329.116, 242.475 326.091 C 222.964 321.352, 215.984 320.554, 194.500 320.604 C 169.574 320.663, 153.408 322.757, 121.134 330.107 C 86.949 337.893, 67.237 346.026, 61.996 354.507 C 59.241 358.964, 59.472 361.079, 62.261 356.940 C 67.364 349.368, 78.204 343.774, 99.835 337.547 C 135.959 327.150, 178.314 320.991, 204.256 322.362 C 218.836 323.133, 227.155 324.381, 242.475 328.096 C 256.891 331.592, 266.944 331.941, 271.590 329.108 L 274.681 327.223 277.954 333.862 C 282.847 343.784, 289.500 353.624, 295.739 360.165 C 300.234 364.878, 301.913 366, 304.471 366 C 312.091 366, 322.833 370.543, 333.111 378.114 C 341.840 384.543, 349.065 387.743, 359.182 389.661 C 367.124 391.167, 370.744 391.172, 393.901 389.714 C 396.962 389.521, 397.591 389.969, 400.204 394.199 C 403.025 398.766, 403.075 399.074, 401.974 405.145 C 401.351 408.580, 399.977 413.085, 398.921 415.156 C 397.386 418.164, 397 421.039, 397 429.460 L 397 440 404.933 440 C 413.625 440, 413.219 439.694, 414.558 447.250 L 415.223 451 406.111 451 L 397 451 397 463 L 397 475 378 475 L 359 475 359 461.634 L 359 448.269 352.375 450.106 C 326.244 457.351, 279.128 453.907, 241.500 441.999 C 225.391 436.901, 184.647 428, 177.421 428 C 175.605 428, 173.705 430.108, 168.577 437.811 C 134.413 489.130, 139.276 550.736, 181.325 599.308 C 193.455 613.320, 216.059 629.922, 235.477 639.081 C 274.500 657.488, 320.724 662.796, 364.500 653.896 C 385.354 649.656, 411.461 639.294, 428.500 628.495 C 451.424 613.966, 473.710 590.206, 484.711 568.568 C 498.261 541.916, 502.275 508.909, 495.328 481.256 L 493.757 475 484.878 475 L 476 475 476 463 L 476 451 465.722 451 L 455.444 451 455.972 445.750 L 456.500 440.500 466.250 440.214 C 473.494 440.001, 476 439.590, 476 438.613 C 476 434.529, 454.539 410.966, 442.701 402.052 C 439.512 399.651, 436.497 396.928, 436.001 396.003 C 435.506 395.077, 434.610 389.500, 434.011 383.611 C 433.142 375.068, 431.607 368.841, 426.420 352.829 L 419.918 332.757 421.013 320.628 C 423.921 288.396, 427.855 259.568, 431.018 247.303 C 435.316 230.635, 436.024 206.922, 432.565 195.500 C 430.035 187.147, 422.370 175.291, 414.646 167.783 C 406.047 159.424, 397.733 153.761, 383.309 146.437 C 377.364 143.418, 371.877 140.435, 371.115 139.808 C 370.045 138.928, 369.869 136.856, 370.342 130.724 C 371.013 122.015, 374.006 114.114, 378.999 107.870 L 381.901 104.240 378.151 103.640 C 372.847 102.792, 363.779 97.991, 354.808 91.282 L 347.116 85.529 352.715 83.514 C 356.066 82.308, 359.127 80.402, 360.342 78.763 C 364.305 73.418, 363.464 58.464, 358.947 53.947 C 356.275 51.275, 355.334 51.466, 351.300 55.500 C 347.109 59.691, 344.849 59.860, 339.799 56.361 C 334.143 52.441, 332.318 48.635, 330.116 36.163 C 327.818 23.149, 325.018 16.592, 320.613 13.906 C 316.450 11.367, 315.668 11.474, 311.476 15.155 M 180.500 109.898 C 173.405 113.984, 166.414 120.437, 163.269 125.803 C 161.199 129.336, 160.588 131.657, 160.648 135.767 C 160.690 138.714, 161.156 141.556, 161.683 142.083 C 162.294 142.694, 165.104 137.806, 169.433 128.605 L 176.226 114.170 185.613 113.466 C 190.776 113.079, 195 112.444, 195 112.055 C 195 110.436, 190.191 107.001, 187.936 107.009 C 186.596 107.015, 183.250 108.314, 180.500 109.898 M 58.631 383.396 C 57.028 396.732, 58.896 464.038, 61.561 489 C 63.150 503.882, 63.089 518.633, 61.382 532.591 L 60.759 537.682 52.630 542.748 C 42.466 549.083, 35.588 552.499, 21 558.459 C 7.864 563.825, 3.435 566.318, 1.882 569.221 C 0.947 570.968, 1.294 570.877, 4.286 568.596 C 6.209 567.129, 13.569 563.534, 20.641 560.608 C 36.304 554.127, 44.387 550.107, 53.281 544.372 C 57.011 541.968, 60.923 540, 61.975 540 C 65.410 540, 68.836 544.348, 72.019 552.750 C 73.876 557.651, 75.712 561, 76.541 561 C 77.670 561, 77.820 562.520, 77.325 568.945 L 76.712 576.890 79.606 577.488 C 85.171 578.639, 87.413 580.434, 89.004 585.013 C 90.408 589.050, 90.934 589.542, 94.528 590.180 C 99.591 591.078, 111.806 591.189, 115.884 590.373 L 119.018 589.746 118.380 577.623 C 117.483 560.577, 119.379 539.560, 122.628 530.551 C 134.288 498.218, 138.317 483.605, 141.568 461.866 C 142.813 453.541, 142.907 448.995, 142.079 437.195 C 141.521 429.240, 140.919 422.586, 140.743 422.410 C 140.566 422.233, 138.483 422.757, 136.113 423.573 C 133.743 424.390, 128.136 425.127, 123.652 425.213 C 113.938 425.397, 109.658 423.608, 103.290 416.698 C 97.703 410.638, 94.145 404.838, 90.898 396.500 C 87.937 388.897, 88.627 389.387, 76.762 386.451 C 73.057 385.535, 67.599 383.324, 64.634 381.539 L 59.244 378.293 58.631 383.396 M 49.483 592.137 C 40.772 597.712, 30.347 604.053, 26.316 606.228 C 22.285 608.402, 18.315 611.140, 17.493 612.313 C 15.230 615.544, 15.705 616.204, 18.374 613.535 C 19.679 612.230, 23.167 609.942, 26.124 608.451 C 29.081 606.960, 38.250 601.455, 46.500 596.217 C 66.890 583.272, 68.715 582, 66.892 582 C 66.028 582, 58.194 586.562, 49.483 592.137" stroke="none" fill="#fb8c04" fill-rule="evenodd"/></svg>