<svg xmlns="http://www.w3.org/2000/svg" width="400" height="256" viewBox="0 0 512 386" version="1.1"><path d="M 331 1.886 C 321.838 4.848, 305 14.660, 305 17.037 C 305 17.567, 304.474 17.887, 303.832 17.750 C 303.189 17.612, 302.121 18.541, 301.458 19.813 C 300.795 21.085, 299.971 22.098, 299.626 22.063 C 297.639 21.863, 297 22.117, 297 23.107 C 297 23.748, 297.736 23.934, 298.750 23.548 C 300.146 23.016, 300.249 23.134, 299.260 24.131 C 297.705 25.698, 295 26.148, 295 24.840 C 295 24.299, 294.271 24.586, 293.381 25.476 C 292.490 26.367, 292.040 27.374, 292.381 27.714 C 292.721 28.055, 293 28.003, 293 27.599 C 293 27.194, 294.288 27.781, 295.863 28.902 C 297.437 30.024, 299.085 30.617, 299.523 30.220 C 299.962 29.824, 299.992 30.070, 299.591 30.766 C 299.190 31.463, 298.443 31.774, 297.931 31.457 C 297.419 31.141, 296.982 31.471, 296.960 32.191 C 296.938 32.911, 296.205 32.180, 295.331 30.566 C 293.821 27.776, 293.675 27.723, 292.371 29.507 C 290.474 32.102, 290.655 32.903, 293 32.290 C 294.644 31.860, 295 32.259, 295 34.536 L 295 37.306 297 35 C 298.100 33.732, 299 33.186, 299 33.788 C 299 34.390, 298.519 35.179, 297.932 35.542 C 297.344 35.905, 297.109 36.842, 297.409 37.624 C 297.834 38.732, 297.547 38.828, 296.109 38.058 C 293.969 36.913, 292.904 37.587, 293.676 39.598 C 293.972 40.369, 293.756 41, 293.195 41 C 292.105 41, 292.125 39.190, 293.234 37.417 C 293.607 36.821, 293.257 36.333, 292.456 36.333 C 291.655 36.333, 291 36.897, 291 37.585 C 291 38.273, 290.699 39.622, 290.330 40.582 C 289.873 41.773, 290.032 42.098, 290.830 41.605 C 291.539 41.167, 292 41.519, 292 42.500 C 292 43.390, 291.603 43.873, 291.117 43.573 C 290.632 43.273, 290.232 44.258, 290.229 45.764 C 290.226 47.269, 289.983 49.469, 289.688 50.653 C 289.303 52.199, 289.685 52.946, 291.042 53.301 C 292.081 53.572, 292.894 53.504, 292.847 53.147 C 292.538 50.770, 293.083 49.683, 294.082 50.682 C 295.734 52.334, 293.041 56.279, 291.267 54.807 C 288.980 52.908, 287.379 56.299, 289.468 58.617 C 290.209 59.439, 290.742 59.435, 291.487 58.605 C 292.044 57.984, 292.391 57.665, 292.259 57.896 C 292.126 58.127, 292.527 58.930, 293.150 59.681 C 294.045 60.760, 293.939 60.914, 292.641 60.416 C 291.440 59.955, 291 60.350, 291 61.893 C 291 63.052, 291.477 64, 292.059 64 C 292.641 64, 292.859 64.419, 292.543 64.931 C 292.226 65.443, 292.425 66.144, 292.984 66.490 C 293.543 66.835, 294 66.416, 294 65.559 C 294 64.702, 294.466 64, 295.035 64 C 295.700 64, 295.746 64.626, 295.163 65.750 C 294.663 66.713, 294.417 68.625, 294.614 70 C 294.960 72.403, 294.916 72.424, 293.487 70.559 C 292.666 69.487, 292 69.178, 292 69.868 C 292 70.555, 291.550 70.840, 291 70.500 C 289.774 69.742, 289.723 71.014, 290.904 72.878 C 291.384 73.636, 292.277 73.947, 292.888 73.569 C 293.529 73.173, 294 73.567, 294 74.500 C 294 75.390, 293.597 75.869, 293.105 75.565 C 292.612 75.260, 291.960 75.661, 291.656 76.455 C 291.286 77.418, 291.584 77.713, 292.551 77.342 C 293.566 76.953, 293.995 77.492, 293.985 79.143 C 293.975 80.619, 293.683 81.050, 293.204 80.296 C 292.286 78.851, 288.006 78.988, 287.985 80.463 C 287.976 81.033, 287.497 80.825, 286.919 80 C 286.102 78.833, 286.013 79.010, 286.517 80.798 C 286.874 82.062, 286.656 83.709, 286.034 84.459 C 285.218 85.443, 285.208 86.011, 286 86.500 C 286.775 86.979, 286.716 87.648, 285.799 88.776 C 284.673 90.162, 284.766 90.283, 286.500 89.685 C 288.243 89.084, 288.296 89.156, 286.916 90.248 C 285.147 91.646, 283.590 99, 285.063 99 C 285.578 99, 286 99.477, 286 100.059 C 286 100.641, 285.590 100.864, 285.088 100.554 C 284.033 99.903, 284.190 101.914, 285.337 103.750 C 285.846 104.564, 285.532 105, 284.437 105 C 283.073 105, 282.985 105.277, 283.971 106.465 C 285.314 108.083, 286.071 117.162, 284.797 116.375 C 284.359 116.104, 284 114.934, 284 113.774 C 284 109.595, 282.977 112.807, 282.491 118.509 C 282.219 121.715, 281.775 124.558, 281.506 124.827 C 281.237 125.096, 281.485 125.880, 282.057 126.569 C 282.778 127.437, 282.775 128.021, 282.049 128.470 C 280.055 129.702, 281.004 131.232, 283.470 130.761 C 284.828 130.501, 285.731 130.627, 285.475 131.040 C 285.220 131.453, 285.658 132.039, 286.449 132.342 C 287.831 132.873, 287.717 137.709, 286.292 138.977 C 285.969 139.265, 285.937 138.551, 286.222 137.392 C 286.506 136.233, 286.325 134.545, 285.820 133.642 C 284.799 131.818, 281.469 131.432, 280.485 133.025 C 280.136 133.588, 280.222 133.985, 280.676 133.906 C 283.526 133.411, 284.323 134.086, 282.443 135.403 C 280.161 137, 279.210 142.991, 281.234 143.015 C 282.190 143.027, 282.208 143.216, 281.309 143.788 C 280.654 144.204, 279.822 146.726, 279.460 149.392 C 278.976 152.964, 279.110 154.050, 279.970 153.519 C 280.611 153.122, 280.895 152.168, 280.600 151.399 C 280.304 150.629, 280.499 150, 281.031 150 C 281.564 150, 282 150.398, 282 150.883 C 282 151.369, 282.900 152.002, 284 152.290 C 285.100 152.577, 285.993 153.417, 285.985 154.156 C 285.973 155.177, 285.736 155.139, 285 154 C 284.264 152.862, 284.027 153.284, 284.015 155.750 C 284.007 157.537, 283.622 159, 283.161 159 C 282.699 159, 282.402 157.650, 282.500 156 C 282.706 152.543, 282.460 152.397, 280.217 154.641 C 278.503 156.354, 277.556 159.393, 279.016 158.490 C 279.478 158.205, 280.156 158.916, 280.522 160.071 C 280.984 161.526, 280.493 162.911, 278.920 164.585 C 276.683 166.967, 277.486 168.114, 279.783 165.817 C 280.434 165.166, 281.299 164.965, 281.704 165.371 C 282.110 165.777, 281.850 166.475, 281.126 166.922 C 280.182 167.505, 280.544 167.920, 282.405 168.387 C 283.832 168.745, 285 169.465, 285 169.988 C 285 170.510, 284.325 170.678, 283.500 170.362 C 282.675 170.045, 282 170.209, 282 170.726 C 282 171.244, 281.325 171.667, 280.500 171.667 C 279.675 171.667, 279 171.093, 279 170.392 C 279 169.691, 278.551 168.841, 278.003 168.502 C 277.350 168.098, 277.357 168.808, 278.022 170.557 C 278.915 172.906, 278.824 173.147, 277.269 172.555 C 275.871 172.023, 275.757 172.140, 276.723 173.114 C 277.671 174.069, 278.524 174.082, 280.520 173.173 C 283.779 171.688, 284 171.702, 284 173.389 C 284 174.153, 283.438 174.757, 282.750 174.731 C 277.690 174.543, 276.956 174.971, 277.562 177.750 C 278.047 179.972, 277.938 180.212, 276.997 179 C 276.065 177.801, 275.946 178.162, 276.401 180.800 C 276.714 182.615, 276.639 183.895, 276.235 183.646 C 275.831 183.396, 275.435 184.274, 275.356 185.596 C 275.225 187.783, 276.061 188.487, 278.324 188.094 C 278.778 188.015, 278.845 188.442, 278.473 189.043 C 278.102 189.645, 277.191 189.904, 276.450 189.619 C 275.537 189.269, 275.302 189.623, 275.721 190.715 C 276.169 191.883, 275.948 192.124, 274.920 191.590 C 273.472 190.837, 276.055 193.120, 279.293 195.456 C 280.280 196.167, 281.303 197.941, 281.567 199.398 C 281.987 201.714, 281.761 201.993, 279.774 201.613 C 278.523 201.374, 276.712 200.865, 275.750 200.482 C 274.390 199.941, 273.983 200.312, 273.923 202.143 C 273.881 203.439, 273.696 205.287, 273.512 206.250 C 273.316 207.275, 273.786 208, 274.648 208 C 275.558 208, 275.832 207.524, 275.367 206.750 C 274.936 206.032, 275.402 206.138, 276.464 207 C 278.122 208.346, 278.141 208.533, 276.656 208.823 C 275.745 209.001, 274.993 209.676, 274.985 210.323 C 274.975 211.061, 274.638 210.977, 274.081 210.097 C 273.424 209.060, 273.208 209.321, 273.253 211.097 C 273.286 212.419, 273.032 214.821, 272.689 216.437 C 272.345 218.056, 272.554 219.962, 273.155 220.687 C 274.419 222.210, 276.416 222.482, 275.504 221.007 C 275.150 220.434, 275.942 220.100, 277.373 220.219 C 279.847 220.424, 280.043 222, 277.594 222 C 276.886 222, 275.353 222.826, 274.189 223.836 C 272.527 225.278, 272.333 225.935, 273.286 226.895 C 274.240 227.857, 274.126 227.976, 272.750 227.452 C 271.778 227.082, 271 227.248, 271 227.826 C 271 228.397, 271.924 229.158, 273.053 229.517 C 274.565 229.997, 274.831 230.499, 274.061 231.426 C 273.487 232.118, 273.277 232.944, 273.594 233.261 C 273.912 233.578, 273.293 234.308, 272.219 234.883 C 270.921 235.578, 270.360 236.777, 270.545 238.464 C 270.699 239.859, 270.398 241, 269.877 241 C 269.308 241, 269.340 241.768, 269.957 242.919 C 270.652 244.218, 270.655 245.002, 269.967 245.344 C 269.408 245.622, 269.524 245.725, 270.225 245.571 C 270.926 245.418, 271.345 244.439, 271.155 243.396 C 270.965 242.353, 270.980 241.725, 271.188 242 C 273.151 244.596, 274.288 246.378, 273.634 245.833 C 273.193 245.467, 272.049 245.951, 271.090 246.910 C 269.185 248.815, 267.483 252.437, 268.907 251.558 C 269.393 251.257, 270.057 251.707, 270.384 252.558 C 270.710 253.408, 270.563 253.848, 270.058 253.536 C 269.552 253.223, 268.849 253.436, 268.495 254.008 C 268.141 254.581, 268.391 254.926, 269.051 254.775 C 269.710 254.624, 270.456 255.063, 270.709 255.751 C 270.961 256.439, 270.567 256.850, 269.834 256.665 C 269.100 256.479, 268.837 256.517, 269.250 256.747 C 269.663 256.978, 270 258.029, 270 259.083 C 270 260.137, 270.477 261, 271.059 261 C 271.641 261, 271.866 260.592, 271.558 260.093 C 271.249 259.595, 271.936 259.432, 273.083 259.732 C 275.684 260.412, 273.695 261.961, 270.191 261.985 C 268.884 261.993, 268.155 262.441, 268.510 263.016 C 268.856 263.575, 269.552 263.777, 270.058 263.464 C 270.563 263.152, 270.709 263.594, 270.382 264.448 C 270.054 265.302, 269.358 266, 268.834 266 C 268.310 266, 268.160 265.550, 268.500 265 C 268.840 264.450, 268.608 264, 267.986 264 C 267.363 264, 267.026 264.788, 267.236 265.750 C 267.447 266.712, 268.267 267.381, 269.059 267.236 C 270.045 267.055, 269.929 267.419, 268.690 268.390 C 267.507 269.317, 267.257 270.041, 267.968 270.480 C 268.566 270.850, 269.978 270.106, 271.104 268.826 C 272.231 267.547, 272.867 267.063, 272.517 267.750 C 272.168 268.438, 272.359 269, 272.941 269 C 273.523 269, 274 267.875, 274 266.500 C 274 265.125, 273.523 264, 272.941 264 C 272.359 264, 272.165 263.543, 272.510 262.984 C 273.741 260.993, 275.068 263.223, 274.850 266.914 C 274.713 269.235, 274.127 270.667, 273.314 270.667 C 272.591 270.667, 271.993 270.179, 271.985 269.583 C 271.976 268.988, 271.568 269.134, 271.077 269.909 C 270.587 270.684, 270.453 272.034, 270.780 272.909 C 271.276 274.237, 271.117 274.291, 269.820 273.238 C 268.552 272.208, 268.031 272.258, 266.991 273.511 C 265.922 274.799, 265.981 274.945, 267.359 274.416 C 269.198 273.710, 269.455 274.748, 268 277 C 267.202 278.235, 267.028 278.250, 267.015 277.083 C 267.007 276.304, 266.669 275.997, 266.265 276.402 C 265.861 276.806, 266.648 277.988, 268.015 279.028 C 270.283 280.755, 270.314 280.872, 268.363 280.373 C 267.182 280.071, 265.882 280.381, 265.458 281.067 C 264.947 281.894, 265.101 282.056, 265.919 281.550 C 266.872 280.961, 266.867 281.240, 265.898 282.791 C 264.848 284.473, 264.947 285.087, 266.519 286.646 C 268.169 288.283, 268.312 288.299, 267.738 286.782 C 267.380 285.837, 267.525 284.794, 268.060 284.463 C 268.595 284.132, 268.714 283.330, 268.324 282.681 C 267.897 281.968, 268.270 282.030, 269.264 282.836 C 270.171 283.571, 271.307 283.928, 271.790 283.630 C 272.272 283.332, 272.667 283.750, 272.667 284.558 C 272.667 285.580, 272.030 285.840, 270.583 285.411 C 268.508 284.796, 268.508 284.800, 270.500 286.478 C 272.119 287.842, 272.173 288.061, 270.782 287.625 C 269.837 287.329, 268.785 287.540, 268.443 288.092 C 268.039 288.746, 267.328 288.687, 266.411 287.926 C 264.910 286.680, 264.954 286.483, 264.429 296.750 C 264.309 299.087, 264.640 301, 265.165 301 C 265.689 301, 265.793 300.474, 265.395 299.830 C 264.910 299.046, 265.215 298.869, 266.321 299.293 C 267.961 299.922, 270.544 296.877, 269.367 295.700 C 268.410 294.743, 265.973 296.147, 266.660 297.259 C 267.026 297.850, 266.832 298.014, 266.218 297.635 C 264.370 296.493, 265.252 293.609, 268.194 291.172 C 270.510 289.253, 271 289.133, 271 290.483 C 271 291.382, 270.550 291.840, 270 291.500 C 269.450 291.160, 269 291.584, 269 292.441 C 269 293.298, 269.675 294, 270.500 294 C 272.568 294, 272.395 294.794, 269.496 298.594 C 267.752 300.881, 267.343 302.094, 268.151 302.593 C 268.870 303.038, 269.038 302.871, 268.595 302.155 C 268.173 301.470, 268.517 301, 269.441 301 C 270.298 301, 271 301.450, 271 302 C 271 302.550, 270.523 303, 269.941 303 C 269.359 303, 269.146 303.427, 269.469 303.950 C 270.035 304.866, 266.180 307.613, 264.846 307.244 C 264.486 307.145, 263.586 307.811, 262.846 308.724 C 261.899 309.892, 261.870 310.161, 262.750 309.633 C 263.544 309.156, 264 309.472, 264 310.500 C 264 311.390, 263.550 311.840, 263 311.500 C 262.450 311.160, 262 311.612, 262 312.504 C 262 313.605, 262.710 314.025, 264.212 313.813 C 265.986 313.562, 266.426 313.995, 266.434 315.998 C 266.440 317.490, 265.852 318.536, 264.972 318.595 C 264.163 318.650, 263.017 318.764, 262.426 318.848 C 261.268 319.012, 260.988 331, 262.143 331 C 262.511 331, 262.579 331.895, 262.293 332.989 C 262.007 334.083, 261.304 334.688, 260.732 334.334 C 260.128 333.961, 259.990 334.175, 260.405 334.845 C 261.418 336.486, 263 336.276, 263 334.500 C 263 333.675, 263.337 332.967, 263.750 332.926 C 264.163 332.885, 265.625 332.666, 267 332.439 C 269.374 332.047, 269.404 332.100, 267.602 333.482 C 266 334.710, 265.909 335.186, 267.021 336.525 C 267.987 337.689, 268.013 338.031, 267.119 337.806 C 266.449 337.638, 265.273 338.954, 264.506 340.731 C 263.740 342.508, 263.425 343.918, 263.806 343.863 C 265.986 343.550, 266.796 344.249, 266.572 346.250 C 266.230 349.316, 262.776 355.790, 262.274 354.306 C 262.052 353.650, 261.112 353.355, 260.185 353.651 C 258.883 354.066, 258.808 353.968, 259.857 353.219 C 260.735 352.592, 260.848 352.024, 260.176 351.609 C 258.896 350.818, 257.650 352.624, 258.512 354.020 C 258.859 354.580, 258.620 356.623, 257.981 358.558 C 257.111 361.192, 257.106 362.423, 257.958 363.450 C 258.750 364.403, 258.774 365.022, 258.038 365.477 C 257.455 365.837, 257.076 367.421, 257.197 368.997 C 257.317 370.572, 257.724 371.670, 258.103 371.437 C 258.481 371.203, 259.037 371.653, 259.338 372.437 C 259.719 373.431, 259.297 373.750, 257.942 373.489 C 256.461 373.204, 256 373.677, 256 375.484 C 256 376.942, 255.327 377.986, 254.250 378.199 C 253.287 378.389, 258.894 379.577, 266.710 380.839 C 310.644 387.932, 329.744 387.768, 379.500 379.872 C 405.288 375.780, 426.668 368.777, 441.393 359.599 C 456.734 350.037, 486.335 321.953, 497.005 306.836 C 507.423 292.077, 512 280.330, 512 268.356 C 512 259.200, 509.570 252.464, 503.474 244.720 C 491.202 229.131, 475.008 222.188, 429.500 213.003 C 395.889 206.220, 387.348 203.843, 375.034 197.849 C 362.600 191.795, 354.089 184.034, 349.431 174.500 C 346.881 169.280, 346.503 167.395, 346.522 160 C 346.547 150.179, 348.067 146.453, 356.108 136.491 C 361.796 129.444, 367.037 124.764, 388 108.012 C 419.861 82.552, 430 68.946, 430 51.651 C 430 31.925, 414.426 16.371, 384.890 6.601 C 365.270 0.111, 342.619 -1.871, 331 1.886 M 293.408 43.225 C 293.550 43.926, 294.469 44.656, 295.451 44.846 C 296.563 45.062, 296.977 44.772, 296.549 44.080 C 296.171 43.468, 295.481 43.203, 295.016 43.490 C 294.551 43.777, 293.941 43.548, 293.660 42.981 C 293.380 42.414, 293.266 42.524, 293.408 43.225 M 291.508 46.841 C 291.740 47.073, 291.494 48.076, 290.962 49.071 C 290.331 50.251, 290.343 51.094, 290.997 51.498 C 291.549 51.839, 292 51.287, 292 50.272 C 292 49.136, 292.778 48.367, 294.022 48.273 C 295.255 48.180, 295.780 48.547, 295.367 49.215 C 294.952 49.887, 295.155 50.022, 295.894 49.565 C 297.591 48.517, 295.439 46.091, 292.976 46.277 C 291.936 46.355, 291.276 46.609, 291.508 46.841 M 287.666 59.731 C 287.372 60.207, 287.511 61.208, 287.973 61.957 C 288.436 62.706, 288.583 63.922, 288.300 64.659 C 288.018 65.397, 288.316 66, 288.964 66 C 289.721 66, 289.601 66.542, 288.629 67.514 C 287.289 68.854, 287.141 70.856, 287.899 77.372 C 288.030 78.500, 291 76.055, 291 74.819 C 291 74.303, 290.642 74.103, 290.204 74.374 C 289.767 74.644, 289.429 73.754, 289.454 72.396 C 289.503 69.768, 291.713 67.739, 293.452 68.727 C 294.029 69.055, 293.475 68.195, 292.223 66.818 C 290.970 65.440, 289.747 63.282, 289.504 62.021 C 288.977 59.286, 288.392 58.557, 287.666 59.731 M 287.739 84.400 C 286.166 85.594, 286.142 85.873, 287.513 87.011 C 289.262 88.463, 290.251 87.828, 290.686 84.974 C 291.035 82.685, 290.210 82.525, 287.739 84.400 M 291.495 89.015 C 291.144 90.123, 290.438 90.771, 289.928 90.456 C 289.418 90.140, 289 90.407, 289 91.048 C 289 91.689, 289.670 91.957, 290.488 91.643 C 291.537 91.240, 291.889 91.644, 291.681 93.010 C 291.303 95.486, 290 96.839, 290 94.755 C 290 92.939, 286.732 93.035, 286.379 94.862 C 286.242 95.573, 286.360 95.621, 286.672 94.984 C 286.981 94.352, 287.933 94.769, 289.007 96.008 C 291.275 98.623, 292.248 97.339, 292.558 91.324 C 292.801 86.598, 292.482 85.905, 291.495 89.015 M 289.694 100.639 C 288.895 101.438, 289.798 103, 291.059 103 C 291.577 103, 292 102.325, 292 101.500 C 292 99.954, 290.820 99.513, 289.694 100.639 M 288 103.960 C 288 104.936, 290.801 108, 291.694 108 C 291.997 108, 291.744 107.396, 291.131 106.658 C 290.519 105.920, 290.258 105.075, 290.552 104.782 C 290.846 104.488, 290.392 103.981, 289.543 103.655 C 288.694 103.329, 288 103.467, 288 103.960 M 286.680 108.884 C 287.012 110.155, 287.791 110.606, 289.075 110.270 C 290.121 109.997, 290.726 109.366, 290.420 108.870 C 290.113 108.374, 289.443 108.226, 288.931 108.543 C 288.419 108.859, 288 108.641, 288 108.059 C 288 107.477, 287.592 107, 287.094 107 C 286.595 107, 286.409 107.848, 286.680 108.884 M 283.497 119.413 C 283.734 121.016, 284.393 122.793, 284.963 123.363 C 286.369 124.769, 286.281 126.292, 284.845 125.405 C 284.114 124.952, 283.963 125.131, 284.434 125.893 C 285.528 127.663, 289.944 122.910, 289.739 120.185 C 289.648 118.983, 289.268 118, 288.894 118 C 287.676 118, 287.130 120.730, 288.145 121.745 C 288.797 122.397, 288.588 122.944, 287.529 123.350 C 286.511 123.741, 285.725 123.333, 285.379 122.233 C 285.078 121.280, 284.436 119.600, 283.950 118.500 C 283.243 116.897, 283.153 117.079, 283.497 119.413 M 285.012 141.023 C 285.984 142.840, 285.653 143.409, 283.786 143.130 C 283.393 143.072, 283.357 143.767, 283.706 144.676 C 284.131 145.784, 283.955 146.090, 283.170 145.605 C 282.479 145.178, 282 145.486, 282 146.358 C 282 147.169, 281.438 148.092, 280.750 148.407 C 280.063 148.723, 280.604 148.701, 281.953 148.359 C 285.164 147.544, 286.440 146.089, 286.770 142.865 C 286.938 141.222, 286.459 140.006, 285.497 139.637 C 284.233 139.152, 284.145 139.403, 285.012 141.023 M 279.748 176.727 C 280.551 177.009, 280.767 178.081, 280.352 179.732 C 279.897 181.547, 280.048 182.088, 280.870 181.580 C 281.510 181.185, 281.774 180.443, 281.457 179.931 C 281.141 179.419, 281.385 179, 282 179 C 282.615 179, 282.864 178.588, 282.553 178.085 C 282.242 177.582, 282.553 176.973, 283.244 176.730 C 283.935 176.488, 283.150 176.289, 281.500 176.289 C 279.850 176.289, 279.062 176.487, 279.748 176.727 M 280 183.577 C 280 184.140, 280.517 185.117, 281.149 185.749 C 282.014 186.614, 281.871 187.548, 280.573 189.529 C 279.624 190.977, 279.104 192.829, 279.417 193.644 C 280.226 195.752, 282.275 194.161, 281.681 191.887 C 281.409 190.849, 281.520 190, 281.927 190 C 283.151 190, 282.798 186.635, 281.353 184.527 C 280.609 183.443, 280 183.015, 280 183.577 M 275.208 196.057 C 276.148 196.605, 276.685 197.658, 276.401 198.397 C 276.117 199.137, 276.609 200.020, 277.494 200.360 C 278.430 200.718, 278.848 200.563, 278.493 199.989 C 278.157 199.445, 278.696 198.985, 279.691 198.967 C 281.257 198.938, 281.183 198.669, 279.139 196.967 C 277.841 195.885, 276.041 195.014, 275.139 195.030 C 273.664 195.058, 273.671 195.161, 275.208 196.057 M 276.318 211.455 C 276.507 212.020, 276.041 213.102, 275.283 213.860 C 274.525 214.618, 274.185 215.518, 274.527 215.861 C 274.870 216.203, 275.640 215.607, 276.240 214.536 C 277.305 212.633, 277.345 212.632, 277.997 214.491 C 278.619 216.265, 278.703 216.245, 279.239 214.195 C 279.555 212.986, 279.405 212.249, 278.907 212.558 C 278.408 212.866, 278 212.679, 278 212.142 C 278 211.606, 278.563 210.950, 279.250 210.685 C 279.938 210.420, 279.482 210.254, 278.238 210.316 C 276.994 210.377, 276.130 210.890, 276.318 211.455 M 277.628 228.500 C 278.313 230.336, 278.215 230.381, 276.437 229.048 C 275.092 228.040, 274.867 228.009, 275.699 228.947 C 276.636 230.002, 276.575 230.921, 275.423 233.149 C 274.612 234.717, 274.255 236, 274.629 236 C 275.004 236, 274.554 236.835, 273.630 237.857 C 272.136 239.508, 272.117 239.852, 273.464 240.970 C 274.297 241.661, 274.688 242.695, 274.334 243.268 C 273.949 243.892, 274.179 244.007, 274.911 243.555 C 275.827 242.989, 275.703 242.329, 274.410 240.901 C 272.842 239.168, 273.136 238.526, 275.324 238.906 C 275.778 238.985, 275.862 238.585, 275.511 238.018 C 275.160 237.450, 275.567 236.720, 276.415 236.394 C 277.325 236.045, 277.813 234.920, 277.604 233.651 C 277.410 232.468, 277.716 230.918, 278.283 230.208 C 279.004 229.305, 278.948 228.551, 278.098 227.708 C 277.144 226.761, 277.043 226.932, 277.628 228.500 M 275.325 248.658 C 275.687 249.020, 275.472 249.931, 274.849 250.682 C 274.225 251.434, 273.997 252.330, 274.342 252.675 C 274.687 253.020, 274.188 253.934, 273.234 254.706 C 271.673 255.970, 271.720 256.004, 273.713 255.040 C 275.073 254.382, 275.706 253.398, 275.356 252.485 C 275.042 251.668, 275.284 251, 275.893 251 C 276.502 251, 277 250.325, 277 249.500 C 277 248.675, 276.475 248, 275.833 248 C 275.192 248, 274.963 248.296, 275.325 248.658 M 273.639 256.694 C 272.513 257.820, 272.954 259, 274.500 259 C 275.325 259, 276 258.577, 276 258.059 C 276 256.798, 274.438 255.895, 273.639 256.694 M 263.314 303.750 C 262.972 304.712, 262.569 305.741, 262.419 306.036 C 262.269 306.330, 262.963 306.571, 263.960 306.571 C 264.957 306.571, 265.568 306.038, 265.318 305.387 C 265.068 304.735, 265.414 303.862, 266.086 303.447 C 266.868 302.963, 267.052 303.107, 266.595 303.845 C 266.164 304.543, 266.547 305, 267.563 305 C 268.945 305, 269.023 304.732, 268 303.500 C 266.327 301.484, 264.078 301.604, 263.314 303.750 M 269 308.443 C 269 309.303, 268.260 309.743, 267.167 309.532 C 266.097 309.326, 265.333 309.760, 265.333 310.574 C 265.333 311.696, 265.630 311.727, 266.854 310.734 C 268.105 309.719, 268.272 309.775, 267.795 311.050 C 267.477 311.903, 267.730 313.561, 268.358 314.734 C 269.361 316.607, 269.526 316.265, 269.711 311.933 C 269.827 309.220, 269.714 307, 269.461 307 C 269.207 307, 269 307.649, 269 308.443 M 263.571 315.571 C 261.621 317.521, 261.574 318.101, 263.423 317.391 C 264.205 317.091, 265.091 316.205, 265.391 315.423 C 266.101 313.574, 265.521 313.621, 263.571 315.571 M 264.984 321.326 C 266.171 322.888, 266.164 323.284, 264.936 324.061 C 264.035 324.631, 263.943 324.975, 264.691 324.985 C 265.346 324.993, 266.165 324.543, 266.510 323.984 C 266.856 323.425, 267.557 323.226, 268.069 323.543 C 268.581 323.859, 269 323.443, 269 322.618 C 269 321.793, 268.480 320.797, 267.845 320.405 C 267.130 319.962, 266.962 320.130, 267.405 320.845 C 268.355 322.384, 266.759 322.320, 264.998 320.750 C 263.798 319.679, 263.796 319.762, 264.984 321.326 M 265 327.059 C 265 327.641, 264.517 327.819, 263.926 327.454 C 263.336 327.089, 263.444 327.738, 264.167 328.895 C 265.796 331.505, 266.639 331.543, 267.965 329.066 C 269.512 326.176, 269.214 325.355, 267.418 327.559 C 266.068 329.216, 265.917 329.244, 266.387 327.750 C 266.690 326.788, 266.501 326, 265.969 326 C 265.436 326, 265 326.477, 265 327.059 M 262.773 336.172 C 261.758 337.220, 261.312 338.650, 261.693 339.641 C 262.131 340.785, 261.961 341.094, 261.163 340.601 C 260.485 340.182, 259.715 340.579, 259.347 341.538 C 258.983 342.487, 259.308 343.582, 260.104 344.086 C 260.884 344.579, 261.006 344.976, 260.380 344.985 C 258.802 345.006, 259.207 349.152, 260.994 351.276 C 262.404 352.950, 262.561 352.954, 263.744 351.335 C 265.216 349.323, 265.407 347.631, 264.069 348.457 C 263.557 348.774, 262.813 348.506, 262.415 347.862 C 261.963 347.131, 262.124 346.959, 262.845 347.405 C 263.480 347.797, 264 347.615, 264 347 C 264 346.385, 264.445 346.157, 264.989 346.493 C 265.546 346.838, 265.728 346.455, 265.406 345.615 C 265.092 344.796, 264.222 344.361, 263.473 344.649 C 262.569 344.996, 262.164 344.471, 262.269 343.086 C 262.355 341.939, 262.855 341, 263.379 341 C 263.904 341, 264.032 340.699, 263.664 340.331 C 263.297 339.963, 263.649 338.941, 264.447 338.058 C 266.536 335.751, 264.932 333.944, 262.773 336.172 M 265.648 340.474 C 265.340 341.278, 265.471 342.173, 265.939 342.462 C 266.407 342.752, 267.043 342.331, 267.352 341.526 C 267.660 340.722, 267.529 339.827, 267.061 339.538 C 266.593 339.248, 265.957 339.669, 265.648 340.474 M 264 355.500 C 263.072 356.618, 263.056 357, 263.937 357 C 264.586 357, 264.821 357.481, 264.458 358.068 C 264.095 358.656, 263.135 358.882, 262.325 358.571 C 261.514 358.260, 260.178 358.679, 259.354 359.503 C 258.457 360.400, 258.310 361, 258.988 361 C 259.609 361, 259.840 361.450, 259.500 362 C 259.160 362.550, 259.407 363, 260.048 363 C 260.718 363, 260.946 362.302, 260.584 361.359 C 260.033 359.924, 260.170 359.892, 261.669 361.109 C 262.805 362.031, 263.131 362.078, 262.633 361.250 C 262.156 360.456, 262.472 360, 263.500 360 C 264.511 360, 264.848 360.469, 264.399 361.250 C 264.003 361.938, 264.066 362.148, 264.539 361.718 C 265.271 361.051, 266.123 354, 265.472 354 C 265.347 354, 264.685 354.675, 264 355.500 M 263 365 C 263 365.550, 263 366.225, 263 366.500 C 263 367.742, 264.399 366.891, 264.599 365.527 C 264.722 364.687, 264.413 364, 263.912 364 C 263.410 364, 263 364.450, 263 365 M 263 370.059 C 263 370.641, 262.581 370.859, 262.069 370.543 C 260.684 369.687, 259.996 371.380, 261.051 373.048 C 261.737 374.133, 261.973 374.169, 261.985 373.191 C 261.993 372.471, 262.357 372.102, 262.792 372.372 C 263.228 372.641, 263.650 371.993, 263.730 370.931 C 263.810 369.869, 263.679 369, 263.438 369 C 263.197 369, 263 369.477, 263 370.059 M 257.938 376.884 C 259.305 379.439, 259.910 379.594, 259.574 377.304 C 259.437 376.372, 258.758 375.419, 258.066 375.189 C 257.085 374.862, 257.057 375.238, 257.938 376.884" stroke="none" fill="#da7fe0" fill-rule="evenodd"/><path d="M 295.452 23.881 C 294.483 24.851, 295.074 25.812, 296.510 25.601 C 299.039 25.230, 300.223 23.429, 297.938 23.429 C 296.820 23.429, 295.701 23.632, 295.452 23.881 M 283.500 32.634 C 274.856 39.285, 263.187 45.456, 255.436 47.475 C 243.932 50.471, 234.976 49.325, 212.244 41.946 C 191.170 35.106, 188.593 34.698, 167.500 34.865 C 120.557 35.236, 99.003 39.930, 70.067 56.082 C 31.004 77.888, 12.321 93.541, 3.745 111.648 C 0.725 118.025, 0.500 119.229, 0.500 129.016 C 0.500 138.847, 0.710 139.959, 3.735 146.108 C 9.975 158.794, 20.140 166.662, 51.964 183.441 C 81.591 199.062, 91.073 206.692, 97.392 220 C 100.112 225.728, 100.472 227.509, 100.423 235 C 100.331 249.169, 94.709 260.799, 77.291 282.844 C 52.592 314.106, 47.484 322.047, 44.446 333.904 C 41.548 345.218, 45.016 356.232, 54.028 364.336 C 64.357 373.622, 79.323 374.360, 107.500 366.971 C 116.300 364.663, 129.155 361.300, 136.067 359.496 C 169.261 350.836, 180.041 352.020, 222.500 368.991 C 235.742 374.284, 248.300 377.957, 253.250 377.985 C 255.504 377.997, 256 377.559, 256 375.557 C 256 373.677, 256.447 373.201, 257.942 373.489 C 259.297 373.750, 259.719 373.431, 259.338 372.437 C 259.037 371.653, 258.481 371.203, 258.103 371.437 C 257.724 371.670, 257.317 370.572, 257.197 368.997 C 257.076 367.421, 257.455 365.837, 258.038 365.477 C 258.774 365.022, 258.750 364.403, 257.958 363.450 C 257.106 362.423, 257.111 361.192, 257.981 358.558 C 258.620 356.623, 258.859 354.580, 258.512 354.020 C 257.650 352.624, 258.896 350.818, 260.176 351.609 C 260.848 352.024, 260.735 352.592, 259.857 353.219 C 258.808 353.968, 258.883 354.066, 260.185 353.651 C 261.112 353.355, 262.052 353.650, 262.274 354.306 C 262.776 355.790, 266.230 349.316, 266.572 346.250 C 266.796 344.249, 265.986 343.550, 263.806 343.863 C 263.425 343.918, 263.740 342.508, 264.506 340.731 C 265.273 338.954, 266.449 337.638, 267.119 337.806 C 268.013 338.031, 267.987 337.689, 267.021 336.525 C 265.909 335.186, 266 334.710, 267.602 333.482 C 269.404 332.100, 269.374 332.047, 267 332.439 C 265.625 332.666, 264.163 332.885, 263.750 332.926 C 263.337 332.967, 263 333.675, 263 334.500 C 263 336.276, 261.418 336.486, 260.405 334.845 C 259.990 334.175, 260.128 333.961, 260.732 334.334 C 261.304 334.688, 262.007 334.083, 262.293 332.989 C 262.579 331.895, 262.511 331, 262.143 331 C 260.988 331, 261.268 319.012, 262.426 318.848 C 263.017 318.764, 264.163 318.650, 264.972 318.595 C 265.852 318.536, 266.440 317.490, 266.434 315.998 C 266.426 313.995, 265.986 313.562, 264.212 313.813 C 262.710 314.025, 262 313.605, 262 312.504 C 262 311.612, 262.450 311.160, 263 311.500 C 263.550 311.840, 264 311.390, 264 310.500 C 264 309.472, 263.544 309.156, 262.750 309.633 C 261.870 310.161, 261.899 309.892, 262.846 308.724 C 263.586 307.811, 264.486 307.145, 264.846 307.244 C 266.180 307.613, 270.035 304.866, 269.469 303.950 C 269.146 303.427, 269.359 303, 269.941 303 C 270.523 303, 271 302.550, 271 302 C 271 301.450, 270.298 301, 269.441 301 C 268.517 301, 268.173 301.470, 268.595 302.155 C 269.038 302.871, 268.870 303.038, 268.151 302.593 C 267.343 302.094, 267.752 300.881, 269.496 298.594 C 272.395 294.794, 272.568 294, 270.500 294 C 269.675 294, 269 293.298, 269 292.441 C 269 291.584, 269.450 291.160, 270 291.500 C 270.550 291.840, 271 291.382, 271 290.483 C 271 289.133, 270.510 289.253, 268.194 291.172 C 265.252 293.609, 264.370 296.493, 266.218 297.635 C 266.832 298.014, 267.026 297.850, 266.660 297.259 C 265.973 296.147, 268.410 294.743, 269.367 295.700 C 270.544 296.877, 267.961 299.922, 266.321 299.293 C 265.215 298.869, 264.910 299.046, 265.395 299.830 C 265.793 300.474, 265.689 301, 265.165 301 C 264.640 301, 264.309 299.087, 264.429 296.750 C 264.954 286.483, 264.910 286.680, 266.411 287.926 C 267.328 288.687, 268.039 288.746, 268.443 288.092 C 268.785 287.540, 269.837 287.329, 270.782 287.625 C 272.173 288.061, 272.119 287.842, 270.500 286.478 C 268.508 284.800, 268.508 284.796, 270.583 285.411 C 272.030 285.840, 272.667 285.580, 272.667 284.558 C 272.667 283.750, 272.272 283.332, 271.790 283.630 C 271.307 283.928, 270.171 283.571, 269.264 282.836 C 268.270 282.030, 267.897 281.968, 268.324 282.681 C 268.714 283.330, 268.595 284.132, 268.060 284.463 C 267.525 284.794, 267.380 285.837, 267.738 286.782 C 268.312 288.299, 268.169 288.283, 266.519 286.646 C 264.947 285.087, 264.848 284.473, 265.898 282.791 C 266.867 281.240, 266.872 280.961, 265.919 281.550 C 265.101 282.056, 264.947 281.894, 265.458 281.067 C 265.882 280.381, 267.182 280.071, 268.363 280.373 C 270.314 280.872, 270.283 280.755, 268.015 279.028 C 266.648 277.988, 265.861 276.806, 266.265 276.402 C 266.669 275.997, 267.007 276.304, 267.015 277.083 C 267.028 278.250, 267.202 278.235, 268 277 C 269.455 274.748, 269.198 273.710, 267.359 274.416 C 265.981 274.945, 265.922 274.799, 266.991 273.511 C 268.031 272.258, 268.552 272.208, 269.820 273.238 C 271.117 274.291, 271.276 274.237, 270.780 272.909 C 270.453 272.034, 270.587 270.684, 271.077 269.909 C 271.568 269.134, 271.976 268.988, 271.985 269.583 C 271.993 270.179, 272.591 270.667, 273.314 270.667 C 274.127 270.667, 274.713 269.235, 274.850 266.914 C 275.068 263.223, 273.741 260.993, 272.510 262.984 C 272.165 263.543, 272.359 264, 272.941 264 C 273.523 264, 274 265.125, 274 266.500 C 274 267.875, 273.523 269, 272.941 269 C 272.359 269, 272.168 268.438, 272.517 267.750 C 272.867 267.063, 272.231 267.547, 271.104 268.826 C 269.978 270.106, 268.566 270.850, 267.968 270.480 C 267.257 270.041, 267.507 269.317, 268.690 268.390 C 269.929 267.419, 270.045 267.055, 269.059 267.236 C 268.267 267.381, 267.447 266.712, 267.236 265.750 C 267.026 264.788, 267.363 264, 267.986 264 C 268.608 264, 268.840 264.450, 268.500 265 C 268.160 265.550, 268.310 266, 268.834 266 C 269.358 266, 270.054 265.302, 270.382 264.448 C 270.709 263.594, 270.563 263.152, 270.058 263.464 C 269.552 263.777, 268.856 263.575, 268.510 263.016 C 268.155 262.441, 268.884 261.993, 270.191 261.985 C 273.695 261.961, 275.684 260.412, 273.083 259.732 C 271.936 259.432, 271.249 259.595, 271.558 260.093 C 271.866 260.592, 271.641 261, 271.059 261 C 270.477 261, 270 260.137, 270 259.083 C 270 258.029, 269.663 256.978, 269.250 256.747 C 268.837 256.517, 269.100 256.479, 269.834 256.665 C 270.567 256.850, 270.961 256.439, 270.709 255.751 C 270.456 255.063, 269.710 254.624, 269.051 254.775 C 268.391 254.926, 268.141 254.581, 268.495 254.008 C 268.849 253.436, 269.552 253.223, 270.058 253.536 C 270.563 253.848, 270.710 253.408, 270.384 252.558 C 270.057 251.707, 269.393 251.257, 268.907 251.558 C 267.483 252.437, 269.185 248.815, 271.090 246.910 C 272.049 245.951, 273.193 245.467, 273.634 245.833 C 274.288 246.378, 273.151 244.596, 271.188 242 C 270.980 241.725, 270.965 242.353, 271.155 243.396 C 271.345 244.439, 270.926 245.418, 270.225 245.571 C 269.524 245.725, 269.408 245.622, 269.967 245.344 C 270.655 245.002, 270.652 244.218, 269.957 242.919 C 269.340 241.768, 269.308 241, 269.877 241 C 270.398 241, 270.699 239.859, 270.545 238.464 C 270.360 236.777, 270.921 235.578, 272.219 234.883 C 273.293 234.308, 273.912 233.578, 273.594 233.261 C 273.277 232.944, 273.487 232.118, 274.061 231.426 C 274.831 230.499, 274.565 229.997, 273.053 229.517 C 271.924 229.158, 271 228.397, 271 227.826 C 271 227.248, 271.778 227.082, 272.750 227.452 C 274.126 227.976, 274.240 227.857, 273.286 226.895 C 272.333 225.935, 272.527 225.278, 274.189 223.836 C 275.353 222.826, 276.886 222, 277.594 222 C 280.043 222, 279.847 220.424, 277.373 220.219 C 275.942 220.100, 275.150 220.434, 275.504 221.007 C 276.416 222.482, 274.419 222.210, 273.155 220.687 C 272.554 219.962, 272.345 218.056, 272.689 216.437 C 273.032 214.821, 273.286 212.419, 273.253 211.097 C 273.208 209.321, 273.424 209.060, 274.081 210.097 C 274.638 210.977, 274.975 211.061, 274.985 210.323 C 274.993 209.676, 275.745 209.001, 276.656 208.823 C 278.141 208.533, 278.122 208.346, 276.464 207 C 275.402 206.138, 274.936 206.032, 275.367 206.750 C 275.832 207.524, 275.558 208, 274.648 208 C 273.786 208, 273.316 207.275, 273.512 206.250 C 273.696 205.287, 273.881 203.439, 273.923 202.143 C 273.983 200.312, 274.390 199.941, 275.750 200.482 C 276.712 200.865, 278.523 201.374, 279.774 201.613 C 281.761 201.993, 281.987 201.714, 281.567 199.398 C 281.303 197.941, 280.280 196.167, 279.293 195.456 C 276.055 193.120, 273.472 190.837, 274.920 191.590 C 275.948 192.124, 276.169 191.883, 275.721 190.715 C 275.302 189.623, 275.537 189.269, 276.450 189.619 C 277.191 189.904, 278.102 189.645, 278.473 189.043 C 278.845 188.442, 278.778 188.015, 278.324 188.094 C 276.061 188.487, 275.225 187.783, 275.356 185.596 C 275.435 184.274, 275.831 183.396, 276.235 183.646 C 276.639 183.895, 276.714 182.615, 276.401 180.800 C 275.946 178.162, 276.065 177.801, 276.997 179 C 277.938 180.212, 278.047 179.972, 277.562 177.750 C 276.956 174.971, 277.690 174.543, 282.750 174.731 C 283.438 174.757, 284 174.153, 284 173.389 C 284 171.702, 283.779 171.688, 280.520 173.173 C 278.524 174.082, 277.671 174.069, 276.723 173.114 C 275.757 172.140, 275.871 172.023, 277.269 172.555 C 278.824 173.147, 278.915 172.906, 278.022 170.557 C 277.357 168.808, 277.350 168.098, 278.003 168.502 C 278.551 168.841, 279 169.691, 279 170.392 C 279 171.093, 279.675 171.667, 280.500 171.667 C 281.325 171.667, 282 171.244, 282 170.726 C 282 170.209, 282.675 170.045, 283.500 170.362 C 284.325 170.678, 285 170.510, 285 169.988 C 285 169.465, 283.832 168.745, 282.405 168.387 C 280.544 167.920, 280.182 167.505, 281.126 166.922 C 281.850 166.475, 282.110 165.777, 281.704 165.371 C 281.299 164.965, 280.434 165.166, 279.783 165.817 C 277.486 168.114, 276.683 166.967, 278.920 164.585 C 280.493 162.911, 280.984 161.526, 280.522 160.071 C 280.156 158.916, 279.478 158.205, 279.016 158.490 C 277.556 159.393, 278.503 156.354, 280.217 154.641 C 282.460 152.397, 282.706 152.543, 282.500 156 C 282.402 157.650, 282.699 159, 283.161 159 C 283.622 159, 284.007 157.537, 284.015 155.750 C 284.027 153.284, 284.264 152.862, 285 154 C 285.736 155.139, 285.973 155.177, 285.985 154.156 C 285.993 153.417, 285.100 152.577, 284 152.290 C 282.900 152.002, 282 151.369, 282 150.883 C 282 150.398, 281.564 150, 281.031 150 C 280.499 150, 280.304 150.629, 280.600 151.399 C 280.895 152.168, 280.611 153.122, 279.970 153.519 C 279.110 154.050, 278.976 152.964, 279.460 149.392 C 279.822 146.726, 280.654 144.204, 281.309 143.788 C 282.208 143.216, 282.190 143.027, 281.234 143.015 C 279.210 142.991, 280.161 137, 282.443 135.403 C 284.323 134.086, 283.526 133.411, 280.676 133.906 C 280.222 133.985, 280.136 133.588, 280.485 133.025 C 281.469 131.432, 284.799 131.818, 285.820 133.642 C 286.325 134.545, 286.506 136.233, 286.222 137.392 C 285.937 138.551, 285.969 139.265, 286.292 138.977 C 287.717 137.709, 287.831 132.873, 286.449 132.342 C 285.658 132.039, 285.220 131.453, 285.475 131.040 C 285.731 130.627, 284.828 130.501, 283.470 130.761 C 281.004 131.232, 280.055 129.702, 282.049 128.470 C 282.775 128.021, 282.778 127.437, 282.057 126.569 C 281.485 125.880, 281.237 125.096, 281.506 124.827 C 281.775 124.558, 282.219 121.715, 282.491 118.509 C 282.977 112.807, 284 109.595, 284 113.774 C 284 114.934, 284.359 116.104, 284.797 116.375 C 286.071 117.162, 285.314 108.083, 283.971 106.465 C 282.985 105.277, 283.073 105, 284.437 105 C 285.532 105, 285.846 104.564, 285.337 103.750 C 284.190 101.914, 284.033 99.903, 285.088 100.554 C 285.590 100.864, 286 100.641, 286 100.059 C 286 99.477, 285.578 99, 285.063 99 C 283.590 99, 285.147 91.646, 286.916 90.248 C 288.296 89.156, 288.243 89.084, 286.500 89.685 C 284.766 90.283, 284.673 90.162, 285.799 88.776 C 286.716 87.648, 286.775 86.979, 286 86.500 C 285.208 86.011, 285.218 85.443, 286.034 84.459 C 286.656 83.709, 286.874 82.062, 286.517 80.798 C 286.013 79.010, 286.102 78.833, 286.919 80 C 287.497 80.825, 287.976 81.033, 287.985 80.463 C 288.006 78.988, 292.286 78.851, 293.204 80.296 C 293.683 81.050, 293.975 80.619, 293.985 79.143 C 293.995 77.492, 293.566 76.953, 292.551 77.342 C 291.584 77.713, 291.286 77.418, 291.656 76.455 C 291.960 75.661, 292.612 75.260, 293.105 75.565 C 293.597 75.869, 294 75.390, 294 74.500 C 294 73.567, 293.529 73.173, 292.888 73.569 C 292.277 73.947, 291.384 73.636, 290.904 72.878 C 289.723 71.014, 289.774 69.742, 291 70.500 C 291.550 70.840, 292 70.555, 292 69.868 C 292 69.178, 292.666 69.487, 293.487 70.559 C 294.916 72.424, 294.960 72.403, 294.614 70 C 294.417 68.625, 294.663 66.713, 295.163 65.750 C 295.746 64.626, 295.700 64, 295.035 64 C 294.466 64, 294 64.702, 294 65.559 C 294 66.416, 293.543 66.835, 292.984 66.490 C 292.425 66.144, 292.226 65.443, 292.543 64.931 C 292.859 64.419, 292.641 64, 292.059 64 C 291.477 64, 291 63.052, 291 61.893 C 291 60.350, 291.440 59.955, 292.641 60.416 C 293.939 60.914, 294.045 60.760, 293.150 59.681 C 292.527 58.930, 292.126 58.127, 292.259 57.896 C 292.391 57.665, 292.044 57.984, 291.487 58.605 C 290.742 59.435, 290.209 59.439, 289.468 58.617 C 287.379 56.299, 288.980 52.908, 291.267 54.807 C 293.041 56.279, 295.734 52.334, 294.082 50.682 C 293.083 49.683, 292.538 50.770, 292.847 53.147 C 292.894 53.504, 292.081 53.572, 291.042 53.301 C 289.685 52.946, 289.303 52.199, 289.688 50.653 C 289.983 49.469, 290.226 47.269, 290.229 45.764 C 290.232 44.258, 290.632 43.273, 291.117 43.573 C 291.603 43.873, 292 43.390, 292 42.500 C 292 41.519, 291.539 41.167, 290.830 41.605 C 290.032 42.098, 289.873 41.773, 290.330 40.582 C 290.699 39.622, 291 38.273, 291 37.585 C 291 36.897, 291.655 36.333, 292.456 36.333 C 293.257 36.333, 293.607 36.821, 293.234 37.417 C 292.125 39.190, 292.105 41, 293.195 41 C 293.756 41, 293.972 40.369, 293.676 39.598 C 292.904 37.587, 293.969 36.913, 296.109 38.058 C 297.547 38.828, 297.834 38.732, 297.409 37.624 C 297.109 36.842, 297.344 35.905, 297.932 35.542 C 298.519 35.179, 299 34.390, 299 33.788 C 299 33.186, 298.100 33.732, 297 35 L 295 37.306 295 34.536 C 295 32.259, 294.644 31.860, 293 32.290 C 290.655 32.903, 290.474 32.102, 292.371 29.507 C 293.675 27.723, 293.821 27.776, 295.331 30.566 C 296.205 32.180, 296.938 32.911, 296.960 32.191 C 296.982 31.471, 297.419 31.141, 297.931 31.457 C 298.443 31.774, 299.151 31.564, 299.505 30.992 C 299.859 30.419, 299.778 30.057, 299.324 30.188 C 298.871 30.318, 297.375 29.789, 296 29.011 C 291.899 26.693, 290.813 27.007, 283.500 32.634 M 293.408 43.225 C 293.550 43.926, 294.469 44.656, 295.451 44.846 C 296.563 45.062, 296.977 44.772, 296.549 44.080 C 296.171 43.468, 295.481 43.203, 295.016 43.490 C 294.551 43.777, 293.941 43.548, 293.660 42.981 C 293.380 42.414, 293.266 42.524, 293.408 43.225 M 291.508 46.841 C 291.740 47.073, 291.494 48.076, 290.962 49.071 C 290.331 50.251, 290.343 51.094, 290.997 51.498 C 291.549 51.839, 292 51.287, 292 50.272 C 292 49.136, 292.778 48.367, 294.022 48.273 C 295.255 48.180, 295.780 48.547, 295.367 49.215 C 294.952 49.887, 295.155 50.022, 295.894 49.565 C 297.591 48.517, 295.439 46.091, 292.976 46.277 C 291.936 46.355, 291.276 46.609, 291.508 46.841 M 287.666 59.731 C 287.372 60.207, 287.511 61.208, 287.973 61.957 C 288.436 62.706, 288.583 63.922, 288.300 64.659 C 288.018 65.397, 288.316 66, 288.964 66 C 289.721 66, 289.601 66.542, 288.629 67.514 C 287.289 68.854, 287.141 70.856, 287.899 77.372 C 288.030 78.500, 291 76.055, 291 74.819 C 291 74.303, 290.642 74.103, 290.204 74.374 C 289.767 74.644, 289.429 73.754, 289.454 72.396 C 289.503 69.768, 291.713 67.739, 293.452 68.727 C 294.029 69.055, 293.475 68.195, 292.223 66.818 C 290.970 65.440, 289.747 63.282, 289.504 62.021 C 288.977 59.286, 288.392 58.557, 287.666 59.731 M 287.739 84.400 C 286.166 85.594, 286.142 85.873, 287.513 87.011 C 289.262 88.463, 290.251 87.828, 290.686 84.974 C 291.035 82.685, 290.210 82.525, 287.739 84.400 M 291.495 89.015 C 291.144 90.123, 290.438 90.771, 289.928 90.456 C 289.418 90.140, 289 90.407, 289 91.048 C 289 91.689, 289.670 91.957, 290.488 91.643 C 291.537 91.240, 291.889 91.644, 291.681 93.010 C 291.303 95.486, 290 96.839, 290 94.755 C 290 92.939, 286.732 93.035, 286.379 94.862 C 286.242 95.573, 286.360 95.621, 286.672 94.984 C 286.981 94.352, 287.933 94.769, 289.007 96.008 C 291.275 98.623, 292.248 97.339, 292.558 91.324 C 292.801 86.598, 292.482 85.905, 291.495 89.015 M 289.694 100.639 C 288.895 101.438, 289.798 103, 291.059 103 C 291.577 103, 292 102.325, 292 101.500 C 292 99.954, 290.820 99.513, 289.694 100.639 M 288 103.960 C 288 104.936, 290.801 108, 291.694 108 C 291.997 108, 291.744 107.396, 291.131 106.658 C 290.519 105.920, 290.258 105.075, 290.552 104.782 C 290.846 104.488, 290.392 103.981, 289.543 103.655 C 288.694 103.329, 288 103.467, 288 103.960 M 286.680 108.884 C 287.012 110.155, 287.791 110.606, 289.075 110.270 C 290.121 109.997, 290.726 109.366, 290.420 108.870 C 290.113 108.374, 289.443 108.226, 288.931 108.543 C 288.419 108.859, 288 108.641, 288 108.059 C 288 107.477, 287.592 107, 287.094 107 C 286.595 107, 286.409 107.848, 286.680 108.884 M 283.497 119.413 C 283.734 121.016, 284.393 122.793, 284.963 123.363 C 286.369 124.769, 286.281 126.292, 284.845 125.405 C 284.114 124.952, 283.963 125.131, 284.434 125.893 C 285.528 127.663, 289.944 122.910, 289.739 120.185 C 289.648 118.983, 289.268 118, 288.894 118 C 287.676 118, 287.130 120.730, 288.145 121.745 C 288.797 122.397, 288.588 122.944, 287.529 123.350 C 286.511 123.741, 285.725 123.333, 285.379 122.233 C 285.078 121.280, 284.436 119.600, 283.950 118.500 C 283.243 116.897, 283.153 117.079, 283.497 119.413 M 285.012 141.023 C 285.984 142.840, 285.653 143.409, 283.786 143.130 C 283.393 143.072, 283.357 143.767, 283.706 144.676 C 284.131 145.784, 283.955 146.090, 283.170 145.605 C 282.479 145.178, 282 145.486, 282 146.358 C 282 147.169, 281.438 148.092, 280.750 148.407 C 280.063 148.723, 280.604 148.701, 281.953 148.359 C 285.164 147.544, 286.440 146.089, 286.770 142.865 C 286.938 141.222, 286.459 140.006, 285.497 139.637 C 284.233 139.152, 284.145 139.403, 285.012 141.023 M 279.748 176.727 C 280.551 177.009, 280.767 178.081, 280.352 179.732 C 279.897 181.547, 280.048 182.088, 280.870 181.580 C 281.510 181.185, 281.774 180.443, 281.457 179.931 C 281.141 179.419, 281.385 179, 282 179 C 282.615 179, 282.864 178.588, 282.553 178.085 C 282.242 177.582, 282.553 176.973, 283.244 176.730 C 283.935 176.488, 283.150 176.289, 281.500 176.289 C 279.850 176.289, 279.062 176.487, 279.748 176.727 M 280 183.577 C 280 184.140, 280.517 185.117, 281.149 185.749 C 282.014 186.614, 281.871 187.548, 280.573 189.529 C 279.624 190.977, 279.104 192.829, 279.417 193.644 C 280.226 195.752, 282.275 194.161, 281.681 191.887 C 281.409 190.849, 281.520 190, 281.927 190 C 283.151 190, 282.798 186.635, 281.353 184.527 C 280.609 183.443, 280 183.015, 280 183.577 M 275.208 196.057 C 276.148 196.605, 276.685 197.658, 276.401 198.397 C 276.117 199.137, 276.609 200.020, 277.494 200.360 C 278.430 200.718, 278.848 200.563, 278.493 199.989 C 278.157 199.445, 278.696 198.985, 279.691 198.967 C 281.257 198.938, 281.183 198.669, 279.139 196.967 C 277.841 195.885, 276.041 195.014, 275.139 195.030 C 273.664 195.058, 273.671 195.161, 275.208 196.057 M 276.318 211.455 C 276.507 212.020, 276.041 213.102, 275.283 213.860 C 274.525 214.618, 274.185 215.518, 274.527 215.861 C 274.870 216.203, 275.640 215.607, 276.240 214.536 C 277.305 212.633, 277.345 212.632, 277.997 214.491 C 278.619 216.265, 278.703 216.245, 279.239 214.195 C 279.555 212.986, 279.405 212.249, 278.907 212.558 C 278.408 212.866, 278 212.679, 278 212.142 C 278 211.606, 278.563 210.950, 279.250 210.685 C 279.938 210.420, 279.482 210.254, 278.238 210.316 C 276.994 210.377, 276.130 210.890, 276.318 211.455 M 277.628 228.500 C 278.313 230.336, 278.215 230.381, 276.437 229.048 C 275.092 228.040, 274.867 228.009, 275.699 228.947 C 276.636 230.002, 276.575 230.921, 275.423 233.149 C 274.612 234.717, 274.255 236, 274.629 236 C 275.004 236, 274.554 236.835, 273.630 237.857 C 272.136 239.508, 272.117 239.852, 273.464 240.970 C 274.297 241.661, 274.688 242.695, 274.334 243.268 C 273.949 243.892, 274.179 244.007, 274.911 243.555 C 275.827 242.989, 275.703 242.329, 274.410 240.901 C 272.842 239.168, 273.136 238.526, 275.324 238.906 C 275.778 238.985, 275.862 238.585, 275.511 238.018 C 275.160 237.450, 275.567 236.720, 276.415 236.394 C 277.325 236.045, 277.813 234.920, 277.604 233.651 C 277.410 232.468, 277.716 230.918, 278.283 230.208 C 279.004 229.305, 278.948 228.551, 278.098 227.708 C 277.144 226.761, 277.043 226.932, 277.628 228.500 M 275.325 248.658 C 275.687 249.020, 275.472 249.931, 274.849 250.682 C 274.225 251.434, 273.997 252.330, 274.342 252.675 C 274.687 253.020, 274.188 253.934, 273.234 254.706 C 271.673 255.970, 271.720 256.004, 273.713 255.040 C 275.073 254.382, 275.706 253.398, 275.356 252.485 C 275.042 251.668, 275.284 251, 275.893 251 C 276.502 251, 277 250.325, 277 249.500 C 277 248.675, 276.475 248, 275.833 248 C 275.192 248, 274.963 248.296, 275.325 248.658 M 273.639 256.694 C 272.513 257.820, 272.954 259, 274.500 259 C 275.325 259, 276 258.577, 276 258.059 C 276 256.798, 274.438 255.895, 273.639 256.694 M 263.314 303.750 C 262.972 304.712, 262.569 305.741, 262.419 306.036 C 262.269 306.330, 262.963 306.571, 263.960 306.571 C 264.957 306.571, 265.568 306.038, 265.318 305.387 C 265.068 304.735, 265.414 303.862, 266.086 303.447 C 266.868 302.963, 267.052 303.107, 266.595 303.845 C 266.164 304.543, 266.547 305, 267.563 305 C 268.945 305, 269.023 304.732, 268 303.500 C 266.327 301.484, 264.078 301.604, 263.314 303.750 M 269 308.443 C 269 309.303, 268.260 309.743, 267.167 309.532 C 266.097 309.326, 265.333 309.760, 265.333 310.574 C 265.333 311.696, 265.630 311.727, 266.854 310.734 C 268.105 309.719, 268.272 309.775, 267.795 311.050 C 267.477 311.903, 267.730 313.561, 268.358 314.734 C 269.361 316.607, 269.526 316.265, 269.711 311.933 C 269.827 309.220, 269.714 307, 269.461 307 C 269.207 307, 269 307.649, 269 308.443 M 263.571 315.571 C 261.621 317.521, 261.574 318.101, 263.423 317.391 C 264.205 317.091, 265.091 316.205, 265.391 315.423 C 266.101 313.574, 265.521 313.621, 263.571 315.571 M 264.984 321.326 C 266.171 322.888, 266.164 323.284, 264.936 324.061 C 264.035 324.631, 263.943 324.975, 264.691 324.985 C 265.346 324.993, 266.165 324.543, 266.510 323.984 C 266.856 323.425, 267.557 323.226, 268.069 323.543 C 268.581 323.859, 269 323.443, 269 322.618 C 269 321.793, 268.480 320.797, 267.845 320.405 C 267.130 319.962, 266.962 320.130, 267.405 320.845 C 268.355 322.384, 266.759 322.320, 264.998 320.750 C 263.798 319.679, 263.796 319.762, 264.984 321.326 M 265 327.059 C 265 327.641, 264.517 327.819, 263.926 327.454 C 263.336 327.089, 263.444 327.738, 264.167 328.895 C 265.796 331.505, 266.639 331.543, 267.965 329.066 C 269.512 326.176, 269.214 325.355, 267.418 327.559 C 266.068 329.216, 265.917 329.244, 266.387 327.750 C 266.690 326.788, 266.501 326, 265.969 326 C 265.436 326, 265 326.477, 265 327.059 M 262.773 336.172 C 261.758 337.220, 261.312 338.650, 261.693 339.641 C 262.131 340.785, 261.961 341.094, 261.163 340.601 C 260.485 340.182, 259.715 340.579, 259.347 341.538 C 258.983 342.487, 259.308 343.582, 260.104 344.086 C 260.884 344.579, 261.006 344.976, 260.380 344.985 C 258.802 345.006, 259.207 349.152, 260.994 351.276 C 262.404 352.950, 262.561 352.954, 263.744 351.335 C 265.216 349.323, 265.407 347.631, 264.069 348.457 C 263.557 348.774, 262.813 348.506, 262.415 347.862 C 261.963 347.131, 262.124 346.959, 262.845 347.405 C 263.480 347.797, 264 347.615, 264 347 C 264 346.385, 264.445 346.157, 264.989 346.493 C 265.546 346.838, 265.728 346.455, 265.406 345.615 C 265.092 344.796, 264.222 344.361, 263.473 344.649 C 262.569 344.996, 262.164 344.471, 262.269 343.086 C 262.355 341.939, 262.855 341, 263.379 341 C 263.904 341, 264.032 340.699, 263.664 340.331 C 263.297 339.963, 263.649 338.941, 264.447 338.058 C 266.536 335.751, 264.932 333.944, 262.773 336.172 M 265.648 340.474 C 265.340 341.278, 265.471 342.173, 265.939 342.462 C 266.407 342.752, 267.043 342.331, 267.352 341.526 C 267.660 340.722, 267.529 339.827, 267.061 339.538 C 266.593 339.248, 265.957 339.669, 265.648 340.474 M 264 355.500 C 263.072 356.618, 263.056 357, 263.937 357 C 264.586 357, 264.821 357.481, 264.458 358.068 C 264.095 358.656, 263.135 358.882, 262.325 358.571 C 261.514 358.260, 260.178 358.679, 259.354 359.503 C 258.457 360.400, 258.310 361, 258.988 361 C 259.609 361, 259.840 361.450, 259.500 362 C 259.160 362.550, 259.407 363, 260.048 363 C 260.718 363, 260.946 362.302, 260.584 361.359 C 260.033 359.924, 260.170 359.892, 261.669 361.109 C 262.805 362.031, 263.131 362.078, 262.633 361.250 C 262.156 360.456, 262.472 360, 263.500 360 C 264.511 360, 264.848 360.469, 264.399 361.250 C 264.003 361.938, 264.066 362.148, 264.539 361.718 C 265.271 361.051, 266.123 354, 265.472 354 C 265.347 354, 264.685 354.675, 264 355.500 M 263 365 C 263 365.550, 263 366.225, 263 366.500 C 263 367.742, 264.399 366.891, 264.599 365.527 C 264.722 364.687, 264.413 364, 263.912 364 C 263.410 364, 263 364.450, 263 365 M 263 370.059 C 263 370.641, 262.581 370.859, 262.069 370.543 C 260.684 369.687, 259.996 371.380, 261.051 373.048 C 261.737 374.133, 261.973 374.169, 261.985 373.191 C 261.993 372.471, 262.357 372.102, 262.792 372.372 C 263.228 372.641, 263.650 371.993, 263.730 370.931 C 263.810 369.869, 263.679 369, 263.438 369 C 263.197 369, 263 369.477, 263 370.059 M 257.938 376.884 C 259.305 379.439, 259.910 379.594, 259.574 377.304 C 259.437 376.372, 258.758 375.419, 258.066 375.189 C 257.085 374.862, 257.057 375.238, 257.938 376.884" stroke="none" fill="#ce68ea" fill-rule="evenodd"/></svg>